<?xml version="1.0" standalone="yes"?>
<svg xmlns="http://www.w3.org/2000/svg" width="1064" height="284">
    <path style="fill:#fffefe; stroke:none;" d="M0 0L0 284L1064 284L1064 0L0 0z"/>
    <path style="fill:#abbdd6; stroke:none;" d="M470 49L471 50L470 49z"/>
    <path style="fill:#6e8bb3; stroke:none;"
          d="M471 49C466.078 65.6509 470 88.6143 470 106L470 193C470 206.004 467.313 222.525 471 235L472 235L473 190L473 95L473 63L471 49z"/>
    <path style="fill:#abbdd6; stroke:none;"
          d="M472 49L473 50L472 49M473 50L473 234L474 234L474 105L474 68L473 50M469 51L469 233L470 233L470 105L470 69L469 51M115 60L115 165L116 165L116 92L115 60z"/>
    <path style="fill:#c8244b; stroke:none;"
          d="M114 61C109.742 65.2576 101.786 70.38 99.6034 76.0394C97.4583 81.6026 99 90.094 99 96L99 137C99 143.612 100.204 151.629 98.196 157.999C95.4401 166.743 84.8706 168.535 80.4568 159.985C76.3248 151.98 79 137.848 79 129C62.3922 135.423 53.467 160.018 68.1049 173.787C74.9885 180.262 85.103 180.562 94 179.91C101.774 179.339 110.852 175.716 113.991 167.999C116.854 160.961 115 150.501 115 143L115 89C115 80.7292 117.206 68.6394 114 61z"/>
    <path style="fill:#abbdd6; stroke:none;"
          d="M112 62L113 63L112 62M111 63L112 64L111 63M110 64L111 65L110 64M109 65L110 66L109 65M108 66L109 67L108 66M107 67L108 68L107 67M106 68L107 69L106 68M105 69L106 70L105 69z"/>
    <path style="fill:#6e8bb3; stroke:none;" d="M104 70L105 71L104 70M103 71L104 72L103 71z"/>
    <path style="fill:#abbdd6; stroke:none;" d="M98 76L98 158L99 158L99 101L98 76M936 84L936 85L939 85L936 84z"/>
    <path style="fill:#6e8bb3; stroke:none;" d="M939 84L939 85L948 85L939 84z"/>
    <path style="fill:#abbdd6; stroke:none;" d="M948 84L948 85L951 85L948 84M930 85L931 86L930 85z"/>
    <path style="fill:#6e8bb3; stroke:none;" d="M931.667 85.3333L932.333 85.6667L931.667 85.3333z"/>
    <path style="fill:#063980; stroke:none;"
          d="M933 85.439C874.004 94.7254 868.308 184.36 927 199.105C935.293 201.188 944.51 201.887 953 200.561C1012.26 191.305 1018.95 104.239 961 87.0363C952.333 84.4633 941.938 84.0322 933 85.439z"/>
    <path style="fill:#6e8bb3; stroke:none;" d="M954.667 85.3333L955.333 85.6667L954.667 85.3333z"/>
    <path style="fill:#abbdd6; stroke:none;" d="M956 85L957 86L956 85M926 86L927 87L926 86z"/>
    <path style="fill:#6e8bb3; stroke:none;" d="M927 86L928 87L927 86M959 86L960 87L959 86z"/>
    <path style="fill:#abbdd6; stroke:none;" d="M960 86L961 87L960 86M923 87L924 88L923 87z"/>
    <path style="fill:#6e8bb3; stroke:none;" d="M924 87L925 88L924 87M962 87L963 88L962 87z"/>
    <path style="fill:#abbdd6; stroke:none;" d="M963 87L964 88L963 87z"/>
    <path style="fill:#c8244b; stroke:none;"
          d="M182 88L182 178L197 178L197 174C200.628 176.981 204.364 179.255 209 180.319C247.389 189.129 248.988 120.507 210 127.329C205.03 128.198 200.822 130.86 197 134C197 114.972 199.238 100.399 182 88z"/>
    <path style="fill:#abbdd6; stroke:none;" d="M284 88L282 91L284 88z"/>
    <path style="fill:#6e8bb3; stroke:none;" d="M285 88L286 89L285 88z"/>
    <path style="fill:#abbdd6; stroke:none;" d="M920 88L921 89L920 88z"/>
    <path style="fill:#6e8bb3; stroke:none;" d="M921 88L922 89L921 88M965 88L966 89L965 88z"/>
    <path style="fill:#abbdd6; stroke:none;" d="M966 88L967 89L966 88z"/>
    <path style="fill:#c8244b; stroke:none;"
          d="M271 178L286 178L286 89C280.729 91.458 273.678 97.373 271.603 103C269.113 109.755 270.924 119.884 270.982 127C271.121 143.958 271 160.999 271 178z"/>
    <path style="fill:#6e8bb3; stroke:none;" d="M918 89L919 90L918 89z"/>
    <path style="fill:#abbdd6; stroke:none;" d="M968 89L969 90L968 89z"/>
    <path style="fill:#6e8bb3; stroke:none;" d="M916 90L917 91L916 90M970 90L971 91L970 90M914 91L915 92L914 91z"/>
    <path style="fill:#abbdd6; stroke:none;"
          d="M972 91L973 92L972 91M280 92L281 93L280 92M912 92L913 93L912 92M974 92L975 93L974 92M910 93L911 94L910 93z"/>
    <path style="fill:#6e8bb3; stroke:none;"
          d="M911 93L912 94L911 93M975 93L976 94L975 93M188 94L189 95L188 94M909 94L910 95L909 94M933.667 94.3333L934.333 94.6667L933.667 94.3333z"/>
    <path style="fill:#abbdd6; stroke:none;" d="M935.667 94.3333L936.333 94.6667L935.667 94.3333z"/>
    <path style="fill:#fffefe; stroke:none;"
          d="M937 94.4282C927.591 95.7793 918.355 99.2486 911.039 105.468C875.752 135.466 902.69 198.206 949 191.572C957.633 190.335 965.985 187.876 973 182.471C1011.27 152.978 985.925 87.4035 937 94.4282z"/>
    <path style="fill:#abbdd6; stroke:none;" d="M950.667 94.3333L951.333 94.6667L950.667 94.3333z"/>
    <path style="fill:#6e8bb3; stroke:none;" d="M952.667 94.3333L953.333 94.6667L952.667 94.3333z"/>
    <path style="fill:#abbdd6; stroke:none;" d="M977 94L978 95L977 94z"/>
    <path style="fill:#6e8bb3; stroke:none;" d="M189 95L190 96L189 95M908 95L909 96L908 95M929 95L930 96L929 95z"/>
    <path style="fill:#abbdd6; stroke:none;"
          d="M930 95L931 96L930 95M955.667 95.3333L956.333 95.6667L955.667 95.3333z"/>
    <path style="fill:#6e8bb3; stroke:none;" d="M957 95L958 96L957 95M978 95L979 96L978 95z"/>
    <path style="fill:#abbdd6; stroke:none;" d="M190 96L191 97L190 96M906 96L907 97L906 96z"/>
    <path style="fill:#6e8bb3; stroke:none;" d="M926 96L927 97L926 96z"/>
    <path style="fill:#abbdd6; stroke:none;" d="M927 96L928 97L927 96M959 96L960 97L959 96z"/>
    <path style="fill:#6e8bb3; stroke:none;" d="M960 96L961 97L960 96z"/>
    <path style="fill:#abbdd6; stroke:none;" d="M980 96L981 97L980 96M191 97L192 98L191 97z"/>
    <path style="fill:#6e8bb3; stroke:none;" d="M905 97L906 98L905 97M923 97L924 98L923 97z"/>
    <path style="fill:#abbdd6; stroke:none;"
          d="M924 97L925 98L924 97M962 97L963 98L962 97M981 97L982 98L981 97M192 98L193 99L192 98z"/>
    <path style="fill:#6e8bb3; stroke:none;" d="M904 98L905 99L904 98M921 98L922 99L921 98z"/>
    <path style="fill:#abbdd6; stroke:none;" d="M922 98L923 99L922 98M964 98L965 99L964 98z"/>
    <path style="fill:#6e8bb3; stroke:none;" d="M965 98L966 99L965 98M982 98L983 99L982 98z"/>
    <path style="fill:#abbdd6; stroke:none;" d="M193 99L194 100L193 99M674 99L674 100L678 100L674 99z"/>
    <path style="fill:#6e8bb3; stroke:none;" d="M903 99L904 100L903 99M919 99L920 100L919 99z"/>
    <path style="fill:#abbdd6; stroke:none;" d="M966 99L967 100L966 99z"/>
    <path style="fill:#6e8bb3; stroke:none;" d="M967 99L968 100L967 99M983 99L984 100L983 99z"/>
    <path style="fill:#abbdd6; stroke:none;" d="M194 100L195 101L194 100M670 100L671 101L670 100z"/>
    <path style="fill:#6e8bb3; stroke:none;" d="M671 100L672 101L671 100z"/>
    <path style="fill:#063980; stroke:none;"
          d="M672.005 100.573C659.556 104.191 668.963 118.986 679.957 115.347C692.021 111.354 682.492 97.5245 672.005 100.573z"/>
    <path style="fill:#6e8bb3; stroke:none;" d="M680 100L681 101L680 100z"/>
    <path style="fill:#abbdd6; stroke:none;" d="M681 100L682 101L681 100z"/>
    <path style="fill:#6e8bb3; stroke:none;" d="M902 100L903 101L902 100M917 100L918 101L917 100z"/>
    <path style="fill:#abbdd6; stroke:none;" d="M918 100L919 101L918 100M968 100L969 101L968 100z"/>
    <path style="fill:#6e8bb3; stroke:none;" d="M984 100L985 101L984 100z"/>
    <path style="fill:#abbdd6; stroke:none;" d="M195 101L196 102L195 101M544 101L544 108L545 108L544 101z"/>
    <path style="fill:#063980; stroke:none;"
          d="M545 101L545 107C554.931 109.658 549.694 118.917 547.333 126C541.872 142.383 533.523 159.917 531 177L549 177C550.793 164.858 553.342 158.994 566 159C568.969 159.001 573.064 158.391 575.436 160.603C579.466 164.363 577.233 173.803 582.43 176.397C587.071 178.713 595.869 177 601 177C595.413 159.526 590.644 141.705 585.849 124C584.216 117.972 583.054 106.674 577.775 102.742C570.963 97.6686 553.254 101 545 101z"/>
    <path style="fill:#6e8bb3; stroke:none;" d="M576 101L577 102L576 101z"/>
    <path style="fill:#063980; stroke:none;"
          d="M601 101L606.891 115.001L607 177L624 177L624 123C624 117.896 625.958 107.532 622.397 103.434C618.351 98.7786 606.573 101 601 101z"/>
    <path style="fill:#6e8bb3; stroke:none;" d="M620 101L621 102L620 101z"/>
    <path style="fill:#abbdd6; stroke:none;" d="M621 101L622 102L621 101z"/>
    <path style="fill:#6e8bb3; stroke:none;" d="M631 101L634 108L634 107L631 101z"/>
    <path style="fill:#063980; stroke:none;"
          d="M632 101L636.941 114.004L637 177L654 177L654 122L652.397 102.742L632 101z"/>
    <path style="fill:#6e8bb3; stroke:none;" d="M651 101L652 102L651 101z"/>
    <path style="fill:#abbdd6; stroke:none;" d="M668 101L669 102L668 101z"/>
    <path style="fill:#6e8bb3; stroke:none;" d="M682 101L683 102L682 101M901 101L902 102L901 101z"/>
    <path style="fill:#abbdd6; stroke:none;" d="M916 101L917 102L916 101z"/>
    <path style="fill:#6e8bb3; stroke:none;" d="M970 101L971 102L970 101M985 101L986 102L985 101z"/>
    <path style="fill:#abbdd6; stroke:none;" d="M196 102L197 103L196 102M578 102L579 103L578 102z"/>
    <path style="fill:#6e8bb3; stroke:none;" d="M622 102L623 103L622 102z"/>
    <path style="fill:#abbdd6; stroke:none;" d="M653 102L654 103L653 102z"/>
    <path style="fill:#6e8bb3; stroke:none;"
          d="M667 102L668 103L667 102M900 102L901 103L900 102M914 102L915 103L914 102z"/>
    <path style="fill:#abbdd6; stroke:none;" d="M971 102L972 103L971 102z"/>
    <path style="fill:#6e8bb3; stroke:none;" d="M986 102L987 103L986 102z"/>
    <path style="fill:#abbdd6; stroke:none;" d="M270 103L271 104L270 103M579 103L580 104L579 103z"/>
    <path style="fill:#6e8bb3; stroke:none;" d="M623 103L624 104L623 103z"/>
    <path style="fill:#abbdd6; stroke:none;" d="M666 103L667 104L666 103z"/>
    <path style="fill:#6e8bb3; stroke:none;" d="M684 103L685 104L684 103M899 103L900 104L899 103z"/>
    <path style="fill:#abbdd6; stroke:none;" d="M913 103L914 104L913 103z"/>
    <path style="fill:#6e8bb3; stroke:none;" d="M973 103L974 104L973 103M987 103L988 104L987 103z"/>
    <path style="fill:#abbdd6; stroke:none;" d="M197 104L197 134L198 134L197 104z"/>
    <path style="fill:#6e8bb3; stroke:none;" d="M270 104L270 120L271 120L270 104z"/>
    <path style="fill:#abbdd6; stroke:none;" d="M654 104L655 105L654 104M685 104L686 105L685 104z"/>
    <path style="fill:#6e8bb3; stroke:none;" d="M898 104L899 105L898 104z"/>
    <path style="fill:#abbdd6; stroke:none;" d="M912 104L913 105L912 104z"/>
    <path style="fill:#6e8bb3; stroke:none;" d="M930 104L930 105L948 105L930 104z"/>
    <path style="fill:#abbdd6; stroke:none;"
          d="M948 104L949 105L948 104M974 104L975 105L974 104M988 104L989 105L988 104z"/>
    <path style="fill:#6e8bb3; stroke:none;" d="M580 105L581 106L580 105M654 105L654 177L655 177L655 128L654 105z"/>
    <path style="fill:#abbdd6; stroke:none;" d="M665 105L666 106L665 105z"/>
    <path style="fill:#6e8bb3; stroke:none;" d="M685 105L686 106L685 105z"/>
    <path style="fill:#abbdd6; stroke:none;" d="M897 105L898 106L897 105z"/>
    <path style="fill:#063980; stroke:none;"
          d="M930 105L930 111C936.981 113.567 935 121.777 935 128L935 176L950.972 174.397L952 159L952 121L950.142 106.603L930 105z"/>
    <path style="fill:#abbdd6; stroke:none;"
          d="M975 105L976 106L975 105M989 105L990 106L989 105M624 106L624 177L625 177L625 128L624 106z"/>
    <path style="fill:#6e8bb3; stroke:none;" d="M665 106L665 110L666 110L665 106z"/>
    <path style="fill:#abbdd6; stroke:none;" d="M896 106L897 107L896 106z"/>
    <path style="fill:#6e8bb3; stroke:none;" d="M909 106L910 107L909 106z"/>
    <path style="fill:#abbdd6; stroke:none;" d="M976 106L977 107L976 106z"/>
    <path style="fill:#6e8bb3; stroke:none;" d="M545 107L545 108L548 108L545 107z"/>
    <path style="fill:#abbdd6; stroke:none;" d="M581 107L582 108L581 107z"/>
    <path style="fill:#6e8bb3; stroke:none;" d="M601.667 107.333L602.333 107.667L601.667 107.333z"/>
    <path style="fill:#abbdd6; stroke:none;" d="M631 107L632 108L631 107z"/>
    <path style="fill:#6e8bb3; stroke:none;" d="M908 107L909 108L908 107z"/>
    <path style="fill:#abbdd6; stroke:none;" d="M951 107L952 108L951 107z"/>
    <path style="fill:#6e8bb3; stroke:none;"
          d="M990 107L991 108L990 107M550 108L551 109L550 108M581 108L582 109L581 108z"/>
    <path style="fill:#abbdd6; stroke:none;" d="M604 108L605 109L604 108z"/>
    <path style="fill:#6e8bb3; stroke:none;"
          d="M635 108L636 109L635 108M895 108L896 109L895 108M951 108L952 109L951 108z"/>
    <path style="fill:#abbdd6; stroke:none;" d="M978 108L979 109L978 108z"/>
    <path style="fill:#6e8bb3; stroke:none;" d="M991 108L992 109L991 108z"/>
    <path style="fill:#abbdd6; stroke:none;" d="M605 109L606 110L605 109z"/>
    <path style="fill:#6e8bb3; stroke:none;" d="M636 109L637 110L636 109z"/>
    <path style="fill:#abbdd6; stroke:none;"
          d="M894 109L895 110L894 109M979 109L980 110L979 109M992 109L993 110L992 109z"/>
    <path style="fill:#6e8bb3; stroke:none;" d="M551 110L551 113L552 113L551 110z"/>
    <path style="fill:#abbdd6; stroke:none;" d="M636 110L636 177L637 177L637 131L636 110M665 110L666 111L665 110z"/>
    <path style="fill:#6e8bb3; stroke:none;" d="M685 110L686 111L685 110z"/>
    <path style="fill:#abbdd6; stroke:none;"
          d="M906 110L907 111L906 110M980 110L981 111L980 110M582 111L583 112L582 111z"/>
    <path style="fill:#6e8bb3; stroke:none;" d="M606 111L606 177L607 177L607 132L606 111z"/>
    <path style="fill:#abbdd6; stroke:none;" d="M685 111L686 112L685 111z"/>
    <path style="fill:#6e8bb3; stroke:none;" d="M893 111L894 112L893 111z"/>
    <path style="fill:#abbdd6; stroke:none;" d="M905 111L906 112L905 111z"/>
    <path style="fill:#6e8bb3; stroke:none;" d="M930 111L930 112L933 112L930 111M981 111L982 112L981 111z"/>
    <path style="fill:#abbdd6; stroke:none;" d="M993 111L994 112L993 111z"/>
    <path style="fill:#6e8bb3; stroke:none;" d="M582 112L583 113L582 112z"/>
    <path style="fill:#abbdd6; stroke:none;" d="M666 112L667 113L666 112z"/>
    <path style="fill:#6e8bb3; stroke:none;" d="M684 112L685 113L684 112z"/>
    <path style="fill:#abbdd6; stroke:none;" d="M892 112L893 113L892 112z"/>
    <path style="fill:#6e8bb3; stroke:none;"
          d="M904 112L905 113L904 112M934 112L935 113L934 112M982 112L983 113L982 112z"/>
    <path style="fill:#abbdd6; stroke:none;" d="M667 113L668 114L667 113z"/>
    <path style="fill:#6e8bb3; stroke:none;" d="M892 113L893 114L892 113M903 113L904 114L903 113z"/>
    <path style="fill:#abbdd6; stroke:none;" d="M934 113L935 114L934 113z"/>
    <path style="fill:#6e8bb3; stroke:none;" d="M994 113L995 114L994 113z"/>
    <path style="fill:#abbdd6; stroke:none;" d="M583 114L584 115L583 114M668 114L669 115L668 114z"/>
    <path style="fill:#6e8bb3; stroke:none;" d="M682 114L683 115L682 114z"/>
    <path style="fill:#abbdd6; stroke:none;"
          d="M891 114L892 115L891 114M983 114L984 115L983 114M995 114L996 115L995 114M550 115L551 116L550 115z"/>
    <path style="fill:#6e8bb3; stroke:none;" d="M583 115L584 116L583 115z"/>
    <path style="fill:#abbdd6; stroke:none;" d="M670 115L671 116L670 115z"/>
    <path style="fill:#6e8bb3; stroke:none;" d="M671 115L672 116L671 115M680 115L681 116L680 115z"/>
    <path style="fill:#abbdd6; stroke:none;" d="M681 115L682 116L681 115z"/>
    <path style="fill:#6e8bb3; stroke:none;" d="M891 115L892 116L891 115z"/>
    <path style="fill:#abbdd6; stroke:none;" d="M902 115L903 116L902 115z"/>
    <path style="fill:#6e8bb3; stroke:none;"
          d="M984 115L985 116L984 115M995 115L996 116L995 115M550 116L551 117L550 116z"/>
    <path style="fill:#abbdd6; stroke:none;"
          d="M674 116L674 117L677 117L674 116M890 116L891 117L890 116M996 116L997 117L996 116z"/>
    <path style="fill:#6e8bb3; stroke:none;" d="M890 117L891 118L890 117z"/>
    <path style="fill:#abbdd6; stroke:none;" d="M901 117L902 118L901 117M985 117L986 118L985 117z"/>
    <path style="fill:#6e8bb3; stroke:none;" d="M996 117L997 118L996 117z"/>
    <path style="fill:#abbdd6; stroke:none;"
          d="M549 118L550 119L549 118M584 118L585 119L584 118M889 118L890 119L889 118z"/>
    <path style="fill:#6e8bb3; stroke:none;" d="M900 118L901 119L900 118z"/>
    <path style="fill:#abbdd6; stroke:none;" d="M915 118L915 119L928 119L915 118M959 118L959 119L972 119L959 118z"/>
    <path style="fill:#6e8bb3; stroke:none;" d="M549 119L550 120L549 119z"/>
    <path style="fill:#abbdd6; stroke:none;" d="M565 119L566 120L565 119z"/>
    <path style="fill:#6e8bb3; stroke:none;" d="M584 119L585 120L584 119z"/>
    <path style="fill:#abbdd6; stroke:none;" d="M715.667 119.333L716.333 119.667L715.667 119.333z"/>
    <path style="fill:#6e8bb3; stroke:none;" d="M717 119L717 120L728 120L717 119z"/>
    <path style="fill:#abbdd6; stroke:none;"
          d="M728.667 119.333L729.333 119.667L728.667 119.333M786.667 119.333L787.333 119.667L786.667 119.333z"/>
    <path style="fill:#6e8bb3; stroke:none;" d="M788 119L788 120L794 120L788 119z"/>
    <path style="fill:#abbdd6; stroke:none;" d="M794 119L795 120L794 119z"/>
    <path style="fill:#6e8bb3; stroke:none;" d="M889 119L890 120L889 119z"/>
    <path style="fill:#abbdd6; stroke:none;" d="M900 119L901 120L900 119z"/>
    <path style="fill:#6e8bb3; stroke:none;" d="M913 119L914 120L913 119z"/>
    <path style="fill:#063980; stroke:none;" d="M911 176L927 176L927 119L912.742 120.742L911 136L911 176z"/>
    <path style="fill:#6e8bb3; stroke:none;"
          d="M927 119L927 175L928 175L928 137L927 119M959 119L959 176L960 176L960 137L959 119z"/>
    <path style="fill:#063980; stroke:none;" d="M960 119L960 176L976 176L976 136L974.258 120.742L960 119z"/>
    <path style="fill:#6e8bb3; stroke:none;" d="M973 119L974 120L973 119z"/>
    <path style="fill:#abbdd6; stroke:none;" d="M986 119L987 120L986 119z"/>
    <path style="fill:#6e8bb3; stroke:none;" d="M997 119L998 120L997 119z"/>
    <path style="fill:#fffefe; stroke:none;" d="M565 120L558 146L572 146L565 120z"/>
    <path style="fill:#abbdd6; stroke:none;" d="M662 120L662 127L663 127L662 120z"/>
    <path style="fill:#063980; stroke:none;"
          d="M663 120L667.852 132.015L668 177L685 177L685 136L683.397 121.858L663 120z"/>
    <path style="fill:#6e8bb3; stroke:none;" d="M681.667 120.333L682.333 120.667L681.667 120.333z"/>
    <path style="fill:#abbdd6; stroke:none;" d="M709 120L710 121L709 120z"/>
    <path style="fill:#6e8bb3; stroke:none;" d="M710.667 120.333L711.333 120.667L710.667 120.333z"/>
    <path style="fill:#063980; stroke:none;"
          d="M697 125L701 136C706.58 134.185 712.978 131.262 718.985 132.152C722.121 132.617 726.273 136.108 723.353 139.4C716.658 146.947 702.439 140.552 696.279 152.004C690.877 162.044 694.589 176.326 707 177.471C714.125 178.128 720.27 174.779 726 171C727.425 179.932 740.083 177 747 177L747 171C736.643 165.777 743.462 141.958 741.532 132C737.699 112.231 709.599 120.738 697 125z"/>
    <path style="fill:#6e8bb3; stroke:none;" d="M732 120L733 121L732 120z"/>
    <path style="fill:#abbdd6; stroke:none;" d="M733 120L734 121L733 120z"/>
    <path style="fill:#6e8bb3; stroke:none;" d="M750 120L751 121L750 120z"/>
    <path style="fill:#063980; stroke:none;"
          d="M750 126C756.607 128.376 756 133.876 756 140L756 177L773 177C773 165.935 770.593 151.721 773.318 141.004C774.464 136.494 780.211 132.321 784.772 135.032C788.479 137.235 787.994 142.311 788 146L788 177L805 177C805 159.801 813.885 113.854 785 120.529C780.183 121.642 776.345 124.848 772 127C771.245 117.23 750.753 116.328 750 126z"/>
    <path style="fill:#6e8bb3; stroke:none;"
          d="M769 120L770 121L769 120M783.667 120.333L784.333 120.667L783.667 120.333M797 120L798 121L797 120z"/>
    <path style="fill:#abbdd6; stroke:none;" d="M816 120L817 121L816 120z"/>
    <path style="fill:#6e8bb3; stroke:none;" d="M817 120L818 121L817 120z"/>
    <path style="fill:#063980; stroke:none;"
          d="M814 136L837 131C829.046 147.739 814 157.4 814 177L858 177L858 166L834 165C842.864 149.439 857 138.798 857 120L827 120L815.603 122.434L814 136z"/>
    <path style="fill:#6e8bb3; stroke:none;" d="M899 120L900 121L899 120M270 121L270 134L271 134L270 121z"/>
    <path style="fill:#abbdd6; stroke:none;" d="M548 121L549 122L548 121z"/>
    <path style="fill:#6e8bb3; stroke:none;" d="M564 121L565 122L564 121M566 121L567 122L566 121z"/>
    <path style="fill:#abbdd6; stroke:none;" d="M585 121L586 122L585 121M705 121L706 122L705 121z"/>
    <path style="fill:#6e8bb3; stroke:none;" d="M706 121L707 122L706 121M734 121L735 122L734 121z"/>
    <path style="fill:#abbdd6; stroke:none;"
          d="M735 121L736 122L735 121M771 121L772 122L771 121M780 121L781 122L780 121z"/>
    <path style="fill:#6e8bb3; stroke:none;"
          d="M781 121L782 122L781 121M799 121L800 122L799 121M815 121L816 122L815 121z"/>
    <path style="fill:#abbdd6; stroke:none;"
          d="M857 121L857 132L858 132L857 121M888 121L889 122L888 121M899 121L900 122L899 121z"/>
    <path style="fill:#6e8bb3; stroke:none;" d="M911 121L912 122L911 121M975 121L976 122L975 121z"/>
    <path style="fill:#abbdd6; stroke:none;" d="M987 121L988 122L987 121M998 121L999 122L998 121z"/>
    <path style="fill:#6e8bb3; stroke:none;" d="M548 122L549 123L548 122z"/>
    <path style="fill:#abbdd6; stroke:none;" d="M564 122L565 123L564 122M566 122L567 123L566 122z"/>
    <path style="fill:#6e8bb3; stroke:none;" d="M585 122L586 123L585 122z"/>
    <path style="fill:#abbdd6; stroke:none;" d="M702 122L703 123L702 122z"/>
    <path style="fill:#6e8bb3; stroke:none;"
          d="M703 122L704 123L703 122M736 122L737 123L736 122M779 122L780 123L779 122M814 122L815 123L814 122M888 122L889 123L888 122M998 122L999 123L998 122z"/>
    <path style="fill:#abbdd6; stroke:none;" d="M685 123L686 124L685 123M700 123L701 124L700 123z"/>
    <path style="fill:#6e8bb3; stroke:none;" d="M701 123L702 124L701 123M737 123L738 124L737 123z"/>
    <path style="fill:#abbdd6; stroke:none;"
          d="M772 123L773 124L772 123M777 123L778 124L777 123M898 123L899 124L898 123z"/>
    <path style="fill:#6e8bb3; stroke:none;" d="M988 123L989 124L988 123z"/>
    <path style="fill:#abbdd6; stroke:none;" d="M547 124L548 125L547 124z"/>
    <path style="fill:#6e8bb3; stroke:none;" d="M563 124L564 125L563 124M685 124L685 177L686 177L686 141L685 124z"/>
    <path style="fill:#abbdd6; stroke:none;" d="M698 124L699 125L698 124z"/>
    <path style="fill:#6e8bb3; stroke:none;"
          d="M738 124L739 125L738 124M772 124L772 127L773 127L772 124M776 124L777 125L776 124z"/>
    <path style="fill:#abbdd6; stroke:none;"
          d="M887 124L888 125L887 124M910 124L910 176L911 176L911 141L910 124M988 124L989 125L988 124M999 124L1000 125L999 124z"/>
    <path style="fill:#6e8bb3; stroke:none;" d="M547 125L548 126L547 125z"/>
    <path style="fill:#abbdd6; stroke:none;" d="M563 125L564 126L563 125z"/>
    <path style="fill:#6e8bb3; stroke:none;" d="M567 125L568 126L567 125z"/>
    <path style="fill:#abbdd6; stroke:none;" d="M586 125L587 126L586 125M739 125L740 126L739 125z"/>
    <path style="fill:#6e8bb3; stroke:none;" d="M775 125L776 126L775 125M803 125L804 126L803 125z"/>
    <path style="fill:#abbdd6; stroke:none;" d="M813 125L813 137L814 137L813 125z"/>
    <path style="fill:#6e8bb3; stroke:none;"
          d="M887 125L888 126L887 125M897 125L898 126L897 125M999 125L1000 126L999 125z"/>
    <path style="fill:#abbdd6; stroke:none;" d="M261 126L257 131L261 126z"/>
    <path style="fill:#6e8bb3; stroke:none;" d="M262 126L262 178L263 178L263 143L262 126z"/>
    <path style="fill:#abbdd6; stroke:none;" d="M567 126L568 127L567 126z"/>
    <path style="fill:#6e8bb3; stroke:none;"
          d="M586 126L587 127L586 126M663.667 126.333L664.333 126.667L663.667 126.333M697 126L698 127L697 126M750 126L750 127L753 127L750 126z"/>
    <path style="fill:#abbdd6; stroke:none;" d="M773 126L774 127L773 126M897 126L898 127L897 126z"/>
    <path style="fill:#6e8bb3; stroke:none;" d="M989 126L990 127L989 126z"/>
    <path style="fill:#abbdd6; stroke:none;" d="M173 127L172 129L173 127M208 127L209 128L208 127z"/>
    <path style="fill:#6e8bb3; stroke:none;" d="M219 127L220 128L219 127z"/>
    <path style="fill:#abbdd6; stroke:none;" d="M220 127L221 128L220 127z"/>
    <path style="fill:#c8244b; stroke:none;"
          d="M261 127L248.349 141L248 178L262 178C262 163.689 266.508 140.127 261 127z"/>
    <path style="fill:#abbdd6; stroke:none;" d="M311.667 127.333L312.333 127.667L311.667 127.333z"/>
    <path style="fill:#c8244b; stroke:none;"
          d="M344 168L331 165C318.957 181.161 301.834 162.26 306.653 147C311.297 132.293 329.8 135.691 333 149C321.839 149 312.45 146.488 307 158L345 158C345 149.159 345.057 139.906 337.815 133.529C323.072 120.549 298.071 127.138 294.465 147C292.667 156.898 294.22 167.838 302.04 174.786C313.678 185.127 336.697 181.959 344 168z"/>
    <path style="fill:#6e8bb3; stroke:none;" d="M324 127L325 128L324 127z"/>
    <path style="fill:#abbdd6; stroke:none;" d="M325 127L326 128L325 127M371 127L372 128L371 127z"/>
    <path style="fill:#6e8bb3; stroke:none;" d="M372 127L373 128L372 127z"/>
    <path style="fill:#c8244b; stroke:none;"
          d="M403 168C399.844 167.104 395.465 164.964 392.17 165.773C386.681 167.12 384.359 172.183 377.83 170.867C374.5 170.195 371.519 168.385 369.225 165.895C362.757 158.878 363.451 144.273 372.043 139.09C380.671 133.885 390.923 139.333 392 149C380.693 149 372.156 146.965 366 158L405 158C404.995 150.012 404.385 141.295 398.786 135.043C382.146 116.462 355.843 130.346 353.287 152C350.071 179.246 391.099 193.447 403 168z"/>
    <path style="fill:#abbdd6; stroke:none;"
          d="M384.667 127.333L385.333 127.667L384.667 127.333M546 127L547 128L546 127z"/>
    <path style="fill:#6e8bb3; stroke:none;" d="M562.333 127.667L562.667 128.333L562.333 127.667z"/>
    <path style="fill:#abbdd6; stroke:none;" d="M666 127L667 128L666 127M697 127L698 128L697 127z"/>
    <path style="fill:#6e8bb3; stroke:none;" d="M740 127L741 128L740 127M754 127L755 128L754 127z"/>
    <path style="fill:#abbdd6; stroke:none;"
          d="M804 127L805 128L804 127M886 127L887 128L886 127M989 127L990 128L989 127z"/>
    <path style="fill:#6e8bb3; stroke:none;" d="M78 128L79 129L78 128z"/>
    <path style="fill:#abbdd6; stroke:none;" d="M79 128L79 159L80 159L79 128z"/>
    <path style="fill:#6e8bb3; stroke:none;" d="M137 128L138 129L137 128z"/>
    <path style="fill:#abbdd6; stroke:none;" d="M138 128L138 160L139 160L138 128z"/>
    <path style="fill:#c8244b; stroke:none;"
          d="M173 128C168.8 131.333 161.611 134.842 159.603 140.039C156.833 147.213 161.869 156.36 156.427 162.786C151.155 169.013 142.07 167.452 139.009 159.996C135.523 151.504 138 138.1 138 129C133.071 131.084 126.552 135.091 124.028 140.015C119.862 148.139 121.351 170.619 129.094 176.03C138.448 182.566 150.131 177.647 159 173L159 178L174 178C174 163.951 178.409 140.89 173 128z"/>
    <path style="fill:#abbdd6; stroke:none;"
          d="M205 128L206 129L205 128M223 128L224 129L223 128M308 128L309 129L308 128M329 128L330 129L329 128M368 128L369 129L368 128M388 128L389 129L388 128z"/>
    <path style="fill:#6e8bb3; stroke:none;" d="M546 128L547 129L546 128z"/>
    <path style="fill:#abbdd6; stroke:none;" d="M587 128L588 129L587 128z"/>
    <path style="fill:#6e8bb3; stroke:none;"
          d="M667 128L668 129L667 128M804 128L805 129L804 128M886.333 128.667L886.667 129.333L886.333 128.667M896.333 128.667L896.667 129.333L896.333 128.667z"/>
    <path style="fill:#abbdd6; stroke:none;" d="M1000 128L1001 129L1000 128M76 129L77 130L76 129z"/>
    <path style="fill:#6e8bb3; stroke:none;" d="M171 129L172 130L171 129z"/>
    <path style="fill:#abbdd6; stroke:none;"
          d="M203 129L204 130L203 129M225 129L226 130L225 129M306 129L307 130L306 129M331 129L332 130L331 129M391 129L392 130L391 129M562 129L563 130L562 129z"/>
    <path style="fill:#6e8bb3; stroke:none;"
          d="M568 129L569 130L568 129M587.333 129.667L587.667 130.333L587.333 129.667z"/>
    <path style="fill:#abbdd6; stroke:none;" d="M667 129L667 177L668 177C668 163.474 672.209 141.414 667 129z"/>
    <path style="fill:#6e8bb3; stroke:none;" d="M698 129L699 130L698 129z"/>
    <path style="fill:#abbdd6; stroke:none;" d="M741 129L742 130L741 129z"/>
    <path style="fill:#6e8bb3; stroke:none;"
          d="M755 129L755 177L756 177C756 163.474 760.209 141.414 755 129M990 129L991 130L990 129M1000.33 129.667L1000.67 130.333L1000.33 129.667z"/>
    <path style="fill:#abbdd6; stroke:none;"
          d="M75 130L76 131L75 130M134 130L135 131L134 130M201 130L202 131L201 130M227 130L228 131L227 130M304 130L305 131L304 130M333 130L334 131L333 130M364 130L365 131L364 130M393 130L394 131L393 130M545 130L546 131L545 130M568 130L569 131L568 130M698 130L699 131L698 130z"/>
    <path style="fill:#6e8bb3; stroke:none;" d="M741.333 130.667L741.667 131.333L741.333 130.667z"/>
    <path style="fill:#abbdd6; stroke:none;"
          d="M896 130L897 131L896 130M990.333 130.667L990.667 131.333L990.333 130.667M133 131L134 132L133 131M168 131L169 132L168 131M228 131L229 132L228 131z"/>
    <path style="fill:#6e8bb3; stroke:none;" d="M303 131L304 132L303 131z"/>
    <path style="fill:#abbdd6; stroke:none;" d="M335 131L336 132L335 131M362 131L363 132L362 131z"/>
    <path style="fill:#6e8bb3; stroke:none;" d="M545 131L546 132L545 131M561 131L562 132L561 131z"/>
    <path style="fill:#abbdd6; stroke:none;" d="M805 131L805 177L806 177C806 163.997 810.01 142.939 805 131z"/>
    <path style="fill:#6e8bb3; stroke:none;"
          d="M824 131L824 132L837 132L824 131M167 132L168 133L167 132M336 132L337 133L336 132z"/>
    <path style="fill:#abbdd6; stroke:none;"
          d="M361 132L362 133L361 132M396 132L397 133L396 132M561 132L562 133L561 132z"/>
    <path style="fill:#6e8bb3; stroke:none;" d="M569 132L570 133L569 132z"/>
    <path style="fill:#abbdd6; stroke:none;" d="M588 132L589 133L588 132z"/>
    <path style="fill:#6e8bb3; stroke:none;"
          d="M699 132L700 133L699 132M712.667 132.333L713.333 132.667L712.667 132.333z"/>
    <path style="fill:#abbdd6; stroke:none;"
          d="M714.667 132.333L715.333 132.667L714.667 132.333M721 132L722 133L721 132z"/>
    <path style="fill:#6e8bb3; stroke:none;" d="M722 132L723 133L722 132M821 132L822 133L821 132z"/>
    <path style="fill:#abbdd6; stroke:none;" d="M836 132L837 133L836 132z"/>
    <path style="fill:#6e8bb3; stroke:none;" d="M856 132L857 133L856 132z"/>
    <path style="fill:#abbdd6; stroke:none;"
          d="M885.333 132.667L885.667 133.333L885.333 132.667M71 133L72 134L71 133M360 133L361 134L360 133M397 133L398 134L397 133M544 133L545 134L544 133M569.333 133.667L569.667 134.333L569.333 133.667z"/>
    <path style="fill:#6e8bb3; stroke:none;" d="M588 133L589 134L588 133z"/>
    <path style="fill:#abbdd6; stroke:none;" d="M699 133L700 134L699 133z"/>
    <path style="fill:#6e8bb3; stroke:none;" d="M708 133L709 134L708 133z"/>
    <path style="fill:#abbdd6; stroke:none;" d="M709 133L710 134L709 133z"/>
    <path style="fill:#6e8bb3; stroke:none;"
          d="M723 133L724 134L723 133M895.333 133.667L895.667 134.333L895.333 133.667z"/>
    <path style="fill:#abbdd6; stroke:none;"
          d="M1001.33 133.667L1001.67 134.333L1001.33 133.667M70 134L71 135L70 134M129 134L130 135L129 134M164 134L165 135L164 134M359 134L360 135L359 134M398 134L399 135L398 134z"/>
    <path style="fill:#6e8bb3; stroke:none;"
          d="M544 134L545 135L544 134M560 134L561 135L560 134M705 134L706 135L705 134z"/>
    <path style="fill:#abbdd6; stroke:none;" d="M706 134L707 135L706 134z"/>
    <path style="fill:#6e8bb3; stroke:none;" d="M778 134L779 135L778 134z"/>
    <path style="fill:#abbdd6; stroke:none;" d="M779 134L780 135L779 134M785 134L786 135L785 134z"/>
    <path style="fill:#6e8bb3; stroke:none;" d="M820 134L821 135L820 134M835 134L836 135L835 134z"/>
    <path style="fill:#abbdd6; stroke:none;" d="M855 134L856 135L855 134z"/>
    <path style="fill:#6e8bb3; stroke:none;"
          d="M885.333 134.667L885.667 135.333L885.333 134.667M991.333 134.667L991.667 135.333L991.333 134.667z"/>
    <path style="fill:#abbdd6; stroke:none;" d="M163 135L164 136L163 135z"/>
    <path style="fill:#6e8bb3; stroke:none;" d="M299 135L300 136L299 135z"/>
    <path style="fill:#abbdd6; stroke:none;"
          d="M358 135L359 136L358 135M399 135L400 136L399 135M560 135L561 136L560 135M589 135L590 136L589 135z"/>
    <path style="fill:#6e8bb3; stroke:none;" d="M700 135L701 136L700 135M702 135L703 136L702 135z"/>
    <path style="fill:#abbdd6; stroke:none;"
          d="M703 135L704 136L703 135M724.333 135.667L724.667 136.333L724.333 135.667M742 135L742 168L743 168L742 135z"/>
    <path style="fill:#6e8bb3; stroke:none;" d="M776 135L777 136L776 135z"/>
    <path style="fill:#abbdd6; stroke:none;"
          d="M777 135L778 136L777 135M786 135L787 136L786 135M820.333 135.667L820.667 136.333L820.333 135.667M834 135L835 136L834 135z"/>
    <path style="fill:#6e8bb3; stroke:none;" d="M854 135L855 136L854 135z"/>
    <path style="fill:#abbdd6; stroke:none;" d="M895.333 135.667L895.667 136.333L895.333 135.667z"/>
    <path style="fill:#6e8bb3; stroke:none;" d="M1001 135L1001 138L1002 138L1001 135z"/>
    <path style="fill:#abbdd6; stroke:none;" d="M67 136L68 137L67 136z"/>
    <path style="fill:#6e8bb3; stroke:none;" d="M270 136L270 177L271 177C271 165.304 274.511 146.75 270 136z"/>
    <path style="fill:#abbdd6; stroke:none;"
          d="M298 136L299 137L298 136M340 136L341 137L340 136M543 136L544 137L543 136z"/>
    <path style="fill:#6e8bb3; stroke:none;"
          d="M570 136L571 137L570 136M589.333 136.667L589.667 137.333L589.333 136.667z"/>
    <path style="fill:#abbdd6; stroke:none;" d="M701 136L702 137L701 136z"/>
    <path style="fill:#6e8bb3; stroke:none;" d="M775 136L776 137L775 136M814 136L814 137L820 137L814 136z"/>
    <path style="fill:#abbdd6; stroke:none;"
          d="M991 136L991 139L992 139L991 136M66 137L67 138L66 137M125 137L126 138L125 137M234 137L235 138L234 137M316 137L316 138L324 138L316 137M341 137L342 138L341 137M357 137L358 138L357 137M375 137L375 138L384 138L375 137z"/>
    <path style="fill:#6e8bb3; stroke:none;" d="M543 137L544 138L543 137M559 137L560 138L559 137z"/>
    <path style="fill:#abbdd6; stroke:none;" d="M570 137L571 138L570 137M774 137L775 138L774 137z"/>
    <path style="fill:#6e8bb3; stroke:none;"
          d="M787 137L787 177L788 177C788 165.566 791.411 147.512 787 137M833 137L834 138L833 137z"/>
    <path style="fill:#abbdd6; stroke:none;"
          d="M853 137L854 138L853 137M124 138L125 139L124 138M159 138L160 139L159 138z"/>
    <path style="fill:#6e8bb3; stroke:none;" d="M297 138L298 139L297 138z"/>
    <path style="fill:#abbdd6; stroke:none;" d="M313 138L314 139L313 138z"/>
    <path style="fill:#fffefe; stroke:none;"
          d="M306 157C315.317 149.108 319.637 149 332 149C331.438 138.728 318.401 133.561 310.394 140.653C305.827 144.697 306.004 151.447 306 157z"/>
    <path style="fill:#abbdd6; stroke:none;" d="M326 138L327 139L326 138M372 138L373 139L372 138z"/>
    <path style="fill:#fffefe; stroke:none;"
          d="M365 157L372.326 150.028L392 149C390.967 138.979 378.42 133.355 370.214 140.434C365.589 144.422 365.707 151.404 365 157z"/>
    <path style="fill:#abbdd6; stroke:none;"
          d="M386 138L387 139L386 138M401 138L402 139L401 138M559 138L560 139L559 138z"/>
    <path style="fill:#6e8bb3; stroke:none;" d="M773 138L774 139L773 138z"/>
    <path style="fill:#abbdd6; stroke:none;" d="M832 138L833 139L832 138z"/>
    <path style="fill:#6e8bb3; stroke:none;" d="M852 138L853 139L852 138z"/>
    <path style="fill:#abbdd6; stroke:none;" d="M63 139L64 140L63 139z"/>
    <path style="fill:#6e8bb3; stroke:none;" d="M123 139L124 140L123 139z"/>
    <path style="fill:#abbdd6; stroke:none;"
          d="M158 139L158 142L159 142L158 139M207.667 139.333L208.333 139.667L207.667 139.333z"/>
    <path style="fill:#fffefe; stroke:none;"
          d="M209 139.558C189.791 141.773 193.616 170.025 213 167.891C230.928 165.918 226.798 137.506 209 139.558z"/>
    <path style="fill:#abbdd6; stroke:none;"
          d="M212.667 139.333L213.333 139.667L212.667 139.333M311 139L312 140L311 139M328 139L329 140L328 139M342 139L343 140L342 139z"/>
    <path style="fill:#6e8bb3; stroke:none;" d="M370 139L371 140L370 139z"/>
    <path style="fill:#abbdd6; stroke:none;"
          d="M542 139L543 140L542 139M590 139L591 140L590 139M773 139L773 177L774 177C774 166.089 777.211 149.036 773 139M831 139L832 140L831 139z"/>
    <path style="fill:#6e8bb3; stroke:none;" d="M851 139L852 140L851 139z"/>
    <path style="fill:#abbdd6; stroke:none;"
          d="M62 140L63 141L62 140M204 140L205 141L204 140M216 140L217 141L216 140M236 140L237 141L236 140M329 140L330 141L329 140M369 140L370 141L369 140M402 140L403 141L402 140z"/>
    <path style="fill:#6e8bb3; stroke:none;"
          d="M542 140L543 141L542 140M558 140L559 141L558 140M571 140L572 141L571 140M590 140L591 141L590 140z"/>
    <path style="fill:#abbdd6; stroke:none;" d="M720 140L721 141L720 140z"/>
    <path style="fill:#6e8bb3; stroke:none;" d="M721 140L721 141L724 141L721 140z"/>
    <path style="fill:#abbdd6; stroke:none;" d="M202 141L203 142L202 141M218 141L219 142L218 141z"/>
    <path style="fill:#6e8bb3; stroke:none;" d="M247 141L248 142L247 141z"/>
    <path style="fill:#abbdd6; stroke:none;"
          d="M330 141L331 142L330 141M343 141L344 142L343 141M355 141L356 142L355 141M368 141L369 142L368 141M558.333 141.667L558.667 142.333L558.333 141.667M571 141L572 142L571 141M714.667 141.333L715.333 141.667L714.667 141.333z"/>
    <path style="fill:#6e8bb3; stroke:none;"
          d="M716.667 141.333L717.333 141.667L716.667 141.333M830 141L831 142L830 141z"/>
    <path style="fill:#abbdd6; stroke:none;"
          d="M850 141L851 142L850 141M219 142L220 143L219 142M237 142L238 143L237 142M295 142L296 143L295 142M308 142L309 143L308 142M390 142L391 143L390 142M403.333 142.667L403.667 143.333L403.333 142.667M541 142L542 143L541 142M591 142L592 143L591 142M710 142L711 143L710 142z"/>
    <path style="fill:#6e8bb3; stroke:none;" d="M711 142L712 143L711 142z"/>
    <path style="fill:#abbdd6; stroke:none;" d="M829 142L830 143L829 142z"/>
    <path style="fill:#6e8bb3; stroke:none;" d="M849 142L850 143L849 142z"/>
    <path style="fill:#abbdd6; stroke:none;" d="M158 143L158 161L159 161L158 143z"/>
    <path style="fill:#6e8bb3; stroke:none;" d="M247 143L247 178L248 178L247 143z"/>
    <path style="fill:#abbdd6; stroke:none;"
          d="M331 143L332 144L331 143M354.333 143.667L354.667 144.333L354.333 143.667M367 143L368 144L367 143z"/>
    <path style="fill:#6e8bb3; stroke:none;"
          d="M541 143L542 144L541 143M572.333 143.667L572.667 144.333L572.333 143.667M591.333 143.667L591.667 144.333L591.333 143.667M707 143L708 144L707 143z"/>
    <path style="fill:#abbdd6; stroke:none;"
          d="M307 144L308 145L307 144M344.333 144.667L344.667 145.333L344.333 144.667M391 144L392 145L391 144z"/>
    <path style="fill:#6e8bb3; stroke:none;" d="M557 144L558 145L557 144z"/>
    <path style="fill:#abbdd6; stroke:none;" d="M704 144L705 145L704 144z"/>
    <path style="fill:#6e8bb3; stroke:none;" d="M705 144L706 145L705 144M828 144L829 145L828 144z"/>
    <path style="fill:#abbdd6; stroke:none;"
          d="M848 144L849 145L848 144M198 145L199 146L198 145M222 145L223 146L222 145M238 145L239 146L238 145M294.333 145.667L294.667 146.333L294.333 145.667M366 145L367 146L366 145M540 145L541 146L540 145M557 145L558 146L557 145M572 145L573 146L572 145z"/>
    <path style="fill:#6e8bb3; stroke:none;" d="M702 145L703 146L702 145z"/>
    <path style="fill:#abbdd6; stroke:none;" d="M827 145L828 146L827 145z"/>
    <path style="fill:#6e8bb3; stroke:none;" d="M847 145L848 146L847 145M238 146L239 147L238 146z"/>
    <path style="fill:#abbdd6; stroke:none;"
          d="M306.333 146.667L306.667 147.333L306.333 146.667M332 146L332 149L333 149L332 146M404.333 146.667L404.667 147.333L404.333 146.667z"/>
    <path style="fill:#6e8bb3; stroke:none;" d="M540 146L541 147L540 146M557 146L557 147L573 147L557 146z"/>
    <path style="fill:#abbdd6; stroke:none;"
          d="M592 146L593 147L592 146M700 146L701 147L700 146M826 146L827 147L826 146z"/>
    <path style="fill:#6e8bb3; stroke:none;" d="M846 146L847 147L846 146z"/>
    <path style="fill:#abbdd6; stroke:none;" d="M223 147L224 148L223 147z"/>
    <path style="fill:#6e8bb3; stroke:none;" d="M592 147L593 148L592 147M699 147L700 148L699 147z"/>
    <path style="fill:#abbdd6; stroke:none;" d="M991 147L991 150L992 150L991 147z"/>
    <path style="fill:#6e8bb3; stroke:none;" d="M196 148L197 149L196 148z"/>
    <path style="fill:#abbdd6; stroke:none;" d="M353.333 148.667L353.667 149.333L353.333 148.667z"/>
    <path style="fill:#6e8bb3; stroke:none;" d="M365 148L366 149L365 148M404 148L405 149L404 148z"/>
    <path style="fill:#abbdd6; stroke:none;" d="M539 148L540 149L539 148z"/>
    <path style="fill:#6e8bb3; stroke:none;" d="M698 148L699 149L698 148M825 148L826 149L825 148z"/>
    <path style="fill:#abbdd6; stroke:none;" d="M845 148L846 149L845 148z"/>
    <path style="fill:#6e8bb3; stroke:none;" d="M1001 148L1001 151L1002 151L1001 148z"/>
    <path style="fill:#abbdd6; stroke:none;"
          d="M196 149L197 150L196 149M224 149L225 150L224 149M239 149L239 154L240 154L239 149M345 149L345 158L346 158L345 149M365 149L365 154L366 154L365 149M371 149L372 150L371 149z"/>
    <path style="fill:#6e8bb3; stroke:none;" d="M539 149L540 150L539 149z"/>
    <path style="fill:#abbdd6; stroke:none;"
          d="M593 149L594 150L593 149M697 149L698 150L697 149M824 149L825 150L824 149z"/>
    <path style="fill:#6e8bb3; stroke:none;" d="M844 149L845 150L844 149M885 149L885 152L886 152L885 149z"/>
    <path style="fill:#abbdd6; stroke:none;"
          d="M895.333 149.667L895.667 150.333L895.333 149.667M311 150L312 151L311 150z"/>
    <path style="fill:#6e8bb3; stroke:none;"
          d="M353 150L354 151L353 150M593.333 150.667L593.667 151.333L593.333 150.667z"/>
    <path style="fill:#abbdd6; stroke:none;" d="M696 150L697 151L696 150z"/>
    <path style="fill:#6e8bb3; stroke:none;" d="M721 150L722 151L721 150z"/>
    <path style="fill:#abbdd6; stroke:none;" d="M722 150L723 151L722 150z"/>
    <path style="fill:#fffefe; stroke:none;"
          d="M725 150C720.657 150.899 704.042 156.987 712.742 163.971C722.044 171.439 725 155.197 725 150z"/>
    <path style="fill:#6e8bb3; stroke:none;" d="M991.333 150.667L991.667 151.333L991.333 150.667z"/>
    <path style="fill:#abbdd6; stroke:none;"
          d="M293 151L293 159L294 159L293 151M310 151L311 152L310 151M538 151L539 152L538 151z"/>
    <path style="fill:#6e8bb3; stroke:none;" d="M717 151L718 152L717 151z"/>
    <path style="fill:#abbdd6; stroke:none;" d="M718 151L719 152L718 151z"/>
    <path style="fill:#6e8bb3; stroke:none;" d="M823 151L824 152L823 151z"/>
    <path style="fill:#abbdd6; stroke:none;" d="M843 151L844 152L843 151z"/>
    <path style="fill:#6e8bb3; stroke:none;" d="M895.333 151.667L895.667 152.333L895.333 151.667z"/>
    <path style="fill:#abbdd6; stroke:none;"
          d="M1001.33 151.667L1001.67 152.333L1001.33 151.667M369 152L370 153L369 152z"/>
    <path style="fill:#6e8bb3; stroke:none;" d="M538 152L539 153L538 152z"/>
    <path style="fill:#abbdd6; stroke:none;"
          d="M695 152L696 153L695 152M715 152L716 153L715 152M822 152L823 153L822 152z"/>
    <path style="fill:#6e8bb3; stroke:none;" d="M842 152L843 153L842 152z"/>
    <path style="fill:#abbdd6; stroke:none;"
          d="M885.333 152.667L885.667 153.333L885.333 152.667M309 153L310 154L309 153M594 153L595 154L594 153z"/>
    <path style="fill:#6e8bb3; stroke:none;" d="M695 153L696 154L695 153z"/>
    <path style="fill:#abbdd6; stroke:none;" d="M713 153L714 154L713 153M821 153L822 154L821 153z"/>
    <path style="fill:#6e8bb3; stroke:none;" d="M841 153L842 154L841 153M239 154L240 155L239 154z"/>
    <path style="fill:#abbdd6; stroke:none;" d="M537 154L538 155L537 154z"/>
    <path style="fill:#6e8bb3; stroke:none;" d="M594 154L595 155L594 154z"/>
    <path style="fill:#abbdd6; stroke:none;"
          d="M712 154L713 155L712 154M990.333 154.667L990.667 155.333L990.333 154.667M239 155L239 159L240 159L239 155z"/>
    <path style="fill:#6e8bb3; stroke:none;" d="M305 155L306 156L305 155z"/>
    <path style="fill:#abbdd6; stroke:none;" d="M367 155L368 156L367 155z"/>
    <path style="fill:#6e8bb3; stroke:none;" d="M537 155L538 156L537 155z"/>
    <path style="fill:#abbdd6; stroke:none;" d="M694 155L695 156L694 155z"/>
    <path style="fill:#6e8bb3; stroke:none;" d="M711 155L712 156L711 155M820 155L821 156L820 155z"/>
    <path style="fill:#abbdd6; stroke:none;" d="M840 155L841 156L840 155M896 155L897 156L896 155z"/>
    <path style="fill:#6e8bb3; stroke:none;" d="M1000.33 155.667L1000.67 156.333L1000.33 155.667z"/>
    <path style="fill:#abbdd6; stroke:none;" d="M307 156L308 157L307 156M595 156L596 157L595 156z"/>
    <path style="fill:#6e8bb3; stroke:none;" d="M694 156L695 157L694 156z"/>
    <path style="fill:#abbdd6; stroke:none;" d="M711 156L712 157L711 156M819 156L820 157L819 156z"/>
    <path style="fill:#6e8bb3; stroke:none;"
          d="M839 156L840 157L839 156M886.333 156.667L886.667 157.333L886.333 156.667M896 156L897 157L896 156M990 156L991 157L990 156z"/>
    <path style="fill:#abbdd6; stroke:none;"
          d="M306 157L307 158L306 157M365 157L365 160L366 160L365 157M536 157L537 158L536 157z"/>
    <path style="fill:#6e8bb3; stroke:none;" d="M595.333 157.667L595.667 158.333L595.333 157.667z"/>
    <path style="fill:#abbdd6; stroke:none;"
          d="M1000 157L1001 158L1000 157M196 158L197 159L196 158M224 158L225 159L224 158z"/>
    <path style="fill:#6e8bb3; stroke:none;" d="M536 158L537 159L536 158M818 158L819 159L818 158z"/>
    <path style="fill:#abbdd6; stroke:none;"
          d="M838 158L839 159L838 158M886 158L887 159L886 158M989 158L990 159L989 158z"/>
    <path style="fill:#6e8bb3; stroke:none;" d="M353 159L354 160L353 159z"/>
    <path style="fill:#abbdd6; stroke:none;" d="M817 159L818 160L817 159z"/>
    <path style="fill:#6e8bb3; stroke:none;" d="M837 159L838 160L837 159z"/>
    <path style="fill:#abbdd6; stroke:none;" d="M897 159L898 160L897 159z"/>
    <path style="fill:#6e8bb3; stroke:none;" d="M989 159L990 160L989 159z"/>
    <path style="fill:#abbdd6; stroke:none;"
          d="M97 160L98 161L97 160M223 160L224 161L223 160M353.333 160.667L353.667 161.333L353.333 160.667M535 160L536 161L535 160z"/>
    <path style="fill:#6e8bb3; stroke:none;"
          d="M553 160L554 161L553 160M576.333 160.667L576.667 161.333L576.333 160.667z"/>
    <path style="fill:#abbdd6; stroke:none;" d="M596 160L597 161L596 160M816 160L817 161L816 160z"/>
    <path style="fill:#6e8bb3; stroke:none;"
          d="M836 160L837 161L836 160M887 160L888 161L887 160M897 160L898 161L897 160M999 160L1000 161L999 160M238 161L239 162L238 161z"/>
    <path style="fill:#abbdd6; stroke:none;" d="M306 161L307 162L306 161z"/>
    <path style="fill:#6e8bb3; stroke:none;" d="M535 161L536 162L535 161z"/>
    <path style="fill:#abbdd6; stroke:none;" d="M553 161L554 162L553 161z"/>
    <path style="fill:#6e8bb3; stroke:none;"
          d="M596 161L597 162L596 161M724 161L725 162L724 161M816 161L817 162L816 161z"/>
    <path style="fill:#abbdd6; stroke:none;"
          d="M836 161L837 162L836 161M887 161L888 162L887 161M988 161L989 162L988 161M999 161L1000 162L999 161M81 162L82 163L81 162M96 162L97 163L96 162M198 162L199 163L198 162M222 162L223 163L222 162M238 162L239 163L238 162M294.333 162.667L294.667 163.333L294.333 162.667M366 162L367 163L366 162M576 162L577 163L576 162z"/>
    <path style="fill:#6e8bb3; stroke:none;" d="M723 162L724 163L723 162M815 162L816 163L815 162z"/>
    <path style="fill:#abbdd6; stroke:none;" d="M835 162L836 163L835 162z"/>
    <path style="fill:#6e8bb3; stroke:none;" d="M898 162L899 163L898 162M988 162L989 163L988 162z"/>
    <path style="fill:#abbdd6; stroke:none;" d="M82 163L83 164L82 163M140 163L141 164L140 163z"/>
    <path style="fill:#6e8bb3; stroke:none;" d="M156 163L157 164L156 163z"/>
    <path style="fill:#abbdd6; stroke:none;"
          d="M221 163L222 164L221 163M307 163L308 164L307 163M534 163L535 164L534 163z"/>
    <path style="fill:#6e8bb3; stroke:none;" d="M552 163L553 164L552 163z"/>
    <path style="fill:#abbdd6; stroke:none;"
          d="M597.333 163.667L597.667 164.333L597.333 163.667M711 163L712 164L711 163M721 163L722 164L721 163M814 163L815 164L814 163z"/>
    <path style="fill:#6e8bb3; stroke:none;"
          d="M834 163L835 164L834 163M888 163L889 164L888 163M998 163L999 164L998 163z"/>
    <path style="fill:#abbdd6; stroke:none;"
          d="M62.3333 164.667L62.6667 165.333L62.3333 164.667M83 164L84 165L83 164M94 164L95 165L94 164M141 164L142 165L141 164z"/>
    <path style="fill:#6e8bb3; stroke:none;" d="M155 164L156 165L155 164z"/>
    <path style="fill:#abbdd6; stroke:none;"
          d="M220 164L221 165L220 164M354 164L355 165L354 164M367 164L368 165L367 164z"/>
    <path style="fill:#6e8bb3; stroke:none;" d="M534 164L535 165L534 164z"/>
    <path style="fill:#abbdd6; stroke:none;" d="M552 164L553 165L552 164z"/>
    <path style="fill:#6e8bb3; stroke:none;" d="M577 164L578 165L577 164z"/>
    <path style="fill:#abbdd6; stroke:none;" d="M719 164L720 165L719 164z"/>
    <path style="fill:#6e8bb3; stroke:none;" d="M720 164L721 165L720 164z"/>
    <path style="fill:#abbdd6; stroke:none;" d="M888 164L889 165L888 164M899 164L900 165L899 164z"/>
    <path style="fill:#6e8bb3; stroke:none;" d="M987 164L988 165L987 164z"/>
    <path style="fill:#abbdd6; stroke:none;"
          d="M998 164L999 165L998 164M85 165L86 166L85 165M92 165L93 166L92 165M142 165L143 166L142 165M153 165L154 166L153 165M201 165L202 166L201 165M219 165L220 166L219 165M237 165L238 166L237 165z"/>
    <path style="fill:#6e8bb3; stroke:none;" d="M295 165L296 166L295 165M308 165L309 166L308 165z"/>
    <path style="fill:#abbdd6; stroke:none;"
          d="M334.667 165.333L335.333 165.667L334.667 165.333M368 165L369 166L368 165M390 165L391 166L390 165M394 165L395 166L394 165M577 165L578 166L577 165z"/>
    <path style="fill:#6e8bb3; stroke:none;" d="M597 165L598 166L597 165z"/>
    <path style="fill:#abbdd6; stroke:none;" d="M713 165L713 166L717 166L713 165z"/>
    <path style="fill:#6e8bb3; stroke:none;"
          d="M717 165L718 166L717 165M813 165L813 177L814 177L813 165M836 165L837 166L836 165M839 165L839 166L846 166L839 165M848 165L848 166L851 166L848 165M853 165L853 166L858 166L853 165z"/>
    <path style="fill:#abbdd6; stroke:none;" d="M858 165L858 177L859 177L858 165z"/>
    <path style="fill:#6e8bb3; stroke:none;" d="M899 165L900 166L899 165z"/>
    <path style="fill:#abbdd6; stroke:none;"
          d="M144.667 166.333L145.333 166.667L144.667 166.333M150.667 166.333L151.333 166.667L150.667 166.333M202 166L203 167L202 166z"/>
    <path style="fill:#6e8bb3; stroke:none;" d="M218 166L219 167L218 166z"/>
    <path style="fill:#abbdd6; stroke:none;" d="M295 166L296 167L295 166z"/>
    <path style="fill:#6e8bb3; stroke:none;" d="M309 166L310 167L309 166z"/>
    <path style="fill:#abbdd6; stroke:none;" d="M330 166L331 167L330 166M338 166L339 167L338 166z"/>
    <path style="fill:#6e8bb3; stroke:none;" d="M355 166L356 167L355 166M397 166L398 167L397 166z"/>
    <path style="fill:#abbdd6; stroke:none;" d="M398 166L399 167L398 166M533 166L534 167L533 166z"/>
    <path style="fill:#6e8bb3; stroke:none;"
          d="M694.333 166.667L694.667 167.333L694.333 166.667M889 166L890 167L889 166z"/>
    <path style="fill:#abbdd6; stroke:none;" d="M900 166L901 167L900 166M986 166L987 167L986 166z"/>
    <path style="fill:#6e8bb3; stroke:none;" d="M997 166L998 167L997 166z"/>
    <path style="fill:#abbdd6; stroke:none;"
          d="M63 167L64 168L63 167M114 167L115 168L114 167M204 167L205 168L204 167M216 167L217 168L216 167M236 167L237 168L236 167z"/>
    <path style="fill:#6e8bb3; stroke:none;" d="M310 167L311 168L310 167M341 167L342 168L341 167z"/>
    <path style="fill:#abbdd6; stroke:none;" d="M342 167L343 168L342 167M355 167L356 168L355 167z"/>
    <path style="fill:#6e8bb3; stroke:none;" d="M389 167L390 168L389 167z"/>
    <path style="fill:#abbdd6; stroke:none;" d="M401 167L402 168L401 167z"/>
    <path style="fill:#6e8bb3; stroke:none;" d="M533 167L534 168L533 167M551 167L552 168L551 167z"/>
    <path style="fill:#abbdd6; stroke:none;" d="M598 167L599 168L598 167M889 167L890 168L889 167z"/>
    <path style="fill:#6e8bb3; stroke:none;" d="M900 167L901 168L900 167z"/>
    <path style="fill:#abbdd6; stroke:none;"
          d="M123 168L124 169L123 168M207 168L207 169L214 169L207 168M296 168L297 169L296 168M371 168L372 169L371 168M388 168L389 169L388 168M403 168L404 169L403 168M551 168L552 169L551 168z"/>
    <path style="fill:#6e8bb3; stroke:none;" d="M578 168L579 169L578 168M598 168L599 169L598 168z"/>
    <path style="fill:#abbdd6; stroke:none;" d="M694 168L695 169L694 168z"/>
    <path style="fill:#6e8bb3; stroke:none;" d="M742 168L743 169L742 168M890 168L891 169L890 168z"/>
    <path style="fill:#abbdd6; stroke:none;" d="M901 168L902 169L901 168M985 168L986 169L985 168z"/>
    <path style="fill:#6e8bb3; stroke:none;" d="M996 168L997 169L996 168z"/>
    <path style="fill:#abbdd6; stroke:none;" d="M64 169L65 170L64 169M113 169L114 170L113 169z"/>
    <path style="fill:#6e8bb3; stroke:none;" d="M297 169L298 170L297 169z"/>
    <path style="fill:#abbdd6; stroke:none;"
          d="M313 169L314 170L313 169M327 169L328 170L327 169M343 169L344 170L343 169M373 169L374 170L373 169M532 169L533 170L532 169M578 169L579 170L578 169M890 169L891 170L890 169M234 170L235 171L234 170z"/>
    <path style="fill:#6e8bb3; stroke:none;" d="M315 170L316 171L315 170z"/>
    <path style="fill:#abbdd6; stroke:none;"
          d="M316 170L317 171L316 170M325 170L326 171L325 170M357 170L358 171L357 170M375 170L376 171L375 170M384 170L385 171L384 170z"/>
    <path style="fill:#6e8bb3; stroke:none;" d="M385 170L386 171L385 170z"/>
    <path style="fill:#abbdd6; stroke:none;" d="M402 170L403 171L402 170z"/>
    <path style="fill:#6e8bb3; stroke:none;" d="M532 170L533 171L532 170M550 170L551 171L550 170z"/>
    <path style="fill:#abbdd6; stroke:none;" d="M599.333 170.667L599.667 171.333L599.333 170.667z"/>
    <path style="fill:#6e8bb3; stroke:none;" d="M695 170L696 171L695 170z"/>
    <path style="fill:#abbdd6; stroke:none;" d="M744 170L745 171L744 170z"/>
    <path style="fill:#6e8bb3; stroke:none;"
          d="M891 170L892 171L891 170M902 170L903 171L902 170M984 170L985 171L984 170M995 170L996 171L995 170z"/>
    <path style="fill:#abbdd6; stroke:none;" d="M124 171L125 172L124 171z"/>
    <path style="fill:#6e8bb3; stroke:none;" d="M233 171L234 172L233 171z"/>
    <path style="fill:#abbdd6; stroke:none;" d="M298 171L299 172L298 171z"/>
    <path style="fill:#6e8bb3; stroke:none;" d="M380 171L381 172L380 171z"/>
    <path style="fill:#abbdd6; stroke:none;" d="M401 171L402 172L401 171M550 171L551 172L550 171z"/>
    <path style="fill:#6e8bb3; stroke:none;" d="M579 171L580 172L579 171z"/>
    <path style="fill:#abbdd6; stroke:none;" d="M695 171L696 172L695 171z"/>
    <path style="fill:#6e8bb3; stroke:none;" d="M725.333 171.667L725.667 172.333L725.333 171.667z"/>
    <path style="fill:#abbdd6; stroke:none;"
          d="M747 171L747 177L748 177L747 171M891 171L892 172L891 171M903 171L904 172L903 171M983 171L984 172L983 171M66 172L67 173L66 172z"/>
    <path style="fill:#6e8bb3; stroke:none;" d="M125 172L126 173L125 172z"/>
    <path style="fill:#abbdd6; stroke:none;"
          d="M299 172L300 173L299 172M400 172L401 173L400 172M531 172L532 173L531 172M579 172L580 173L579 172z"/>
    <path style="fill:#6e8bb3; stroke:none;"
          d="M599 172L600 173L599 172M696 172L697 173L696 172M723 172L724 173L723 172M892 172L893 173L892 172M994 172L995 173L994 172z"/>
    <path style="fill:#abbdd6; stroke:none;" d="M67 173L68 174L67 173M157 173L158 178L159 178L157 173z"/>
    <path style="fill:#6e8bb3; stroke:none;" d="M300 173L301 174L300 173z"/>
    <path style="fill:#abbdd6; stroke:none;" d="M399 173L400 174L399 173z"/>
    <path style="fill:#6e8bb3; stroke:none;" d="M531 173L532 174L531 173M549 173L550 174L549 173z"/>
    <path style="fill:#abbdd6; stroke:none;"
          d="M722 173L723 174L722 173M725 173L726 174L725 173M892 173L893 174L892 173z"/>
    <path style="fill:#6e8bb3; stroke:none;" d="M904 173L905 174L904 173M982 173L983 174L982 173z"/>
    <path style="fill:#abbdd6; stroke:none;" d="M68 174L69 175L68 174M197 174L197 178L198 178L197 174z"/>
    <path style="fill:#6e8bb3; stroke:none;" d="M301 174L302 175L301 174z"/>
    <path style="fill:#abbdd6; stroke:none;"
          d="M398 174L399 175L398 174M549 174L550 175L549 174M600 174L601 175L600 174z"/>
    <path style="fill:#6e8bb3; stroke:none;" d="M720 174L721 175L720 174M893 174L894 175L893 174z"/>
    <path style="fill:#abbdd6; stroke:none;" d="M905 174L906 175L905 174z"/>
    <path style="fill:#6e8bb3; stroke:none;" d="M981 174L982 175L981 174z"/>
    <path style="fill:#abbdd6; stroke:none;"
          d="M993 174L994 175L993 174M107 175L108 176L107 175M154 175L155 176L154 175M302 175L303 176L302 175M337 175L338 176L337 175M530 175L531 176L530 175z"/>
    <path style="fill:#6e8bb3; stroke:none;"
          d="M580 175L581 176L580 175M600 175L601 176L600 175M699 175L700 176L699 175M718 175L719 176L718 175z"/>
    <path style="fill:#abbdd6; stroke:none;" d="M719 175L720 176L719 175z"/>
    <path style="fill:#6e8bb3; stroke:none;" d="M726 175L727 176L726 175z"/>
    <path style="fill:#abbdd6; stroke:none;" d="M906 175L907 176L906 175M927 175L928 176L927 175z"/>
    <path style="fill:#6e8bb3; stroke:none;" d="M951 175L952 176L951 175z"/>
    <path style="fill:#abbdd6; stroke:none;" d="M980 175L981 176L980 175z"/>
    <path style="fill:#6e8bb3; stroke:none;" d="M992 175L993 176L992 175z"/>
    <path style="fill:#abbdd6; stroke:none;"
          d="M71 176L72 177L71 176M129 176L130 177L129 176M152 176L153 177L152 176M228 176L229 177L228 176M363 176L364 177L363 176M395 176L396 177L395 176z"/>
    <path style="fill:#6e8bb3; stroke:none;" d="M530 176L531 177L530 176z"/>
    <path style="fill:#abbdd6; stroke:none;" d="M580 176L581 177L580 176M700 176L701 177L700 176z"/>
    <path style="fill:#6e8bb3; stroke:none;" d="M701 176L702 177L701 176M716 176L717 177L716 176z"/>
    <path style="fill:#abbdd6; stroke:none;"
          d="M717 176L718 177L717 176M727 176L728 177L727 176M894 176L895 177L894 176M979 176L980 177L979 176M73 177L74 178L73 177z"/>
    <path style="fill:#6e8bb3; stroke:none;" d="M131 177L132 178L131 177z"/>
    <path style="fill:#abbdd6; stroke:none;"
          d="M149 177L150 178L149 177M201 177L202 178L201 177M270 177L271 178L270 177M305 177L306 178L305 177M334 177L335 178L334 177M393 177L394 178L393 177M530 177L530 178L549 178L530 177M581 177L581 178L601 178L581 177M606 177L606 178L624 178L606 177M637 177L637 178L655 178L637 177M668 177L668 178L686 178L668 177M703 177L704 178L703 177z"/>
    <path style="fill:#6e8bb3; stroke:none;" d="M704 177L704 178L707 178L704 177M710 177L710 178L713 178L710 177z"/>
    <path style="fill:#abbdd6; stroke:none;"
          d="M713 177L714 178L713 177M730 177L730 178L747 178L730 177M756 177L756 178L773 178L756 177M788 177L788 178L805 178L788 177M814 177L814 178L858 178C846.537 173.19 826.48 177 814 177z"/>
    <path style="fill:#6e8bb3; stroke:none;" d="M895 177L896 178L895 177z"/>
    <path style="fill:#abbdd6; stroke:none;"
          d="M978 177L979 178L978 177M991 177L992 178L991 177M75 178L76 179L75 178M101 178L102 179L101 178M133 178L134 179L133 178M146 178L147 179L146 178M203 178L204 179L203 178M225 178L226 179L225 178M307 178L308 179L307 178z"/>
    <path style="fill:#6e8bb3; stroke:none;" d="M331 178L332 179L331 178z"/>
    <path style="fill:#abbdd6; stroke:none;"
          d="M366 178L367 179L366 178M391 178L392 179L391 178M977 178L978 179L977 178z"/>
    <path style="fill:#6e8bb3; stroke:none;" d="M990 178L991 179L990 178z"/>
    <path style="fill:#abbdd6; stroke:none;"
          d="M78.6667 179.333L79.3333 179.667L78.6667 179.333M97.6667 179.333L98.3333 179.667L97.6667 179.333M138 179L138 180L142 180L138 179M205 179L206 180L205 179M223 179L224 180L223 179M309 179L310 180L309 179z"/>
    <path style="fill:#6e8bb3; stroke:none;" d="M310 179L311 180L310 179M328 179L329 180L328 179z"/>
    <path style="fill:#abbdd6; stroke:none;"
          d="M329 179L330 180L329 179M369 179L370 180L369 179M388 179L389 180L388 179M896 179L897 180L896 179M976 179L977 180L976 179M83 180L83 181L87 181L83 180z"/>
    <path style="fill:#6e8bb3; stroke:none;" d="M87 180L87 181L90 181L87 180z"/>
    <path style="fill:#abbdd6; stroke:none;"
          d="M90 180L90 181L94 181L90 180M208.667 180.333L209.333 180.667L208.667 180.333M219.667 180.333L220.333 180.667L219.667 180.333M313.667 180.333L314.333 180.667L313.667 180.333z"/>
    <path style="fill:#6e8bb3; stroke:none;" d="M323 180L324 181L323 180z"/>
    <path style="fill:#abbdd6; stroke:none;"
          d="M324.667 180.333L325.333 180.667L324.667 180.333M372.667 180.333L373.333 180.667L372.667 180.333z"/>
    <path style="fill:#6e8bb3; stroke:none;" d="M374 180L375 181L374 180M383 180L384 181L383 180z"/>
    <path style="fill:#abbdd6; stroke:none;"
          d="M384 180L385 181L384 180M897 180L898 181L897 180M911 180L912 181L911 180M975 180L976 181L975 180M989 180L990 181L989 180z"/>
    <path style="fill:#6e8bb3; stroke:none;" d="M898 181L899 182L898 181z"/>
    <path style="fill:#abbdd6; stroke:none;"
          d="M912 181L913 182L912 181M974 181L975 182L974 181M988 181L989 182L988 181z"/>
    <path style="fill:#6e8bb3; stroke:none;"
          d="M899 182L900 183L899 182M913 182L914 183L913 182M973 182L974 183L973 182z"/>
    <path style="fill:#abbdd6; stroke:none;" d="M987 182L988 183L987 182z"/>
    <path style="fill:#6e8bb3; stroke:none;" d="M900 183L901 184L900 183M914 183L915 184L914 183z"/>
    <path style="fill:#abbdd6; stroke:none;" d="M915 183L916 184L915 183M971 183L972 184L971 183z"/>
    <path style="fill:#6e8bb3; stroke:none;"
          d="M986 183L987 184L986 183M901 184L902 185L901 184M916 184L917 185L916 184M970 184L971 185L970 184M985 184L986 185L985 184M902 185L903 186L902 185z"/>
    <path style="fill:#abbdd6; stroke:none;" d="M918 185L919 186L918 185M968 185L969 186L968 185z"/>
    <path style="fill:#6e8bb3; stroke:none;"
          d="M984 185L985 186L984 185M903 186L904 187L903 186M919 186L920 187L919 186z"/>
    <path style="fill:#abbdd6; stroke:none;" d="M920 186L921 187L920 186M966 186L967 187L966 186z"/>
    <path style="fill:#6e8bb3; stroke:none;"
          d="M967 186L968 187L967 186M983 186L984 187L983 186M904 187L905 188L904 187M921 187L922 188L921 187z"/>
    <path style="fill:#abbdd6; stroke:none;" d="M922 187L923 188L922 187M964 187L965 188L964 187z"/>
    <path style="fill:#6e8bb3; stroke:none;" d="M965 187L966 188L965 187z"/>
    <path style="fill:#abbdd6; stroke:none;"
          d="M982 187L983 188L982 187M905 188L906 189L905 188M924 188L925 189L924 188M962 188L963 189L962 188M981 188L982 189L981 188M906 189L907 190L906 189z"/>
    <path style="fill:#6e8bb3; stroke:none;" d="M926 189L927 190L926 189z"/>
    <path style="fill:#abbdd6; stroke:none;" d="M927 189L928 190L927 189M959 189L960 190L959 189z"/>
    <path style="fill:#6e8bb3; stroke:none;"
          d="M960 189L961 190L960 189M908 190L909 191L908 190M929.667 190.333L930.333 190.667L929.667 190.333z"/>
    <path style="fill:#abbdd6; stroke:none;" d="M931 190L932 191L931 190M955 190L956 191L955 190z"/>
    <path style="fill:#6e8bb3; stroke:none;" d="M956 190L957 191L956 190M978 190L979 191L978 190z"/>
    <path style="fill:#abbdd6; stroke:none;" d="M909 191L910 192L909 191z"/>
    <path style="fill:#6e8bb3; stroke:none;" d="M934.667 191.333L935.333 191.667L934.667 191.333z"/>
    <path style="fill:#abbdd6; stroke:none;"
          d="M936.667 191.333L937.333 191.667L936.667 191.333M949.667 191.333L950.333 191.667L949.667 191.333z"/>
    <path style="fill:#6e8bb3; stroke:none;" d="M951.667 191.333L952.333 191.667L951.667 191.333z"/>
    <path style="fill:#abbdd6; stroke:none;" d="M977 191L978 192L977 191z"/>
    <path style="fill:#6e8bb3; stroke:none;" d="M911 192L912 193L911 192M975 192L976 193L975 192z"/>
    <path style="fill:#abbdd6; stroke:none;" d="M912 193L913 194L912 193z"/>
    <path style="fill:#6e8bb3; stroke:none;" d="M973 193L974 194L973 193z"/>
    <path style="fill:#abbdd6; stroke:none;"
          d="M974 193L975 194L974 193M914 194L915 195L914 194M972 194L973 195L972 194M916 195L917 196L916 195M970 195L971 196L970 195M918 196L919 197L918 196z"/>
    <path style="fill:#6e8bb3; stroke:none;" d="M967 196L968 197L967 196z"/>
    <path style="fill:#abbdd6; stroke:none;" d="M968 196L969 197L968 196M920 197L921 198L920 197z"/>
    <path style="fill:#6e8bb3; stroke:none;" d="M921 197L922 198L921 197M965 197L966 198L965 197z"/>
    <path style="fill:#abbdd6; stroke:none;" d="M923 198L924 199L923 198z"/>
    <path style="fill:#6e8bb3; stroke:none;" d="M924 198L925 199L924 198M962 198L963 199L962 198z"/>
    <path style="fill:#abbdd6; stroke:none;" d="M963 198L964 199L963 198M926 199L927 200L926 199z"/>
    <path style="fill:#6e8bb3; stroke:none;"
          d="M927.667 199.333L928.333 199.667L927.667 199.333M958.667 199.333L959.333 199.667L958.667 199.333z"/>
    <path style="fill:#abbdd6; stroke:none;"
          d="M960 199L961 200L960 199M930.667 200.333L931.333 200.667L930.667 200.333z"/>
    <path style="fill:#6e8bb3; stroke:none;"
          d="M932.667 200.333L933.333 200.667L932.667 200.333M953.667 200.333L954.333 200.667L953.667 200.333z"/>
    <path style="fill:#abbdd6; stroke:none;"
          d="M955.667 200.333L956.333 200.667L955.667 200.333M937 201L937 202L941 202L937 201z"/>
    <path style="fill:#6e8bb3; stroke:none;" d="M941 201L941 202L946 202L941 201z"/>
    <path style="fill:#abbdd6; stroke:none;"
          d="M946 201L946 202L950 202L946 201M93.6667 203.333L94.3333 203.667L93.6667 203.333z"/>
    <path style="fill:#6e8bb3; stroke:none;" d="M95 203L96 204L95 203z"/>
    <path style="fill:#c8244b; stroke:none;"
          d="M103 224L103 214L96 214L96 216L100 216C98.8378 231.224 79.2958 210.899 95.0139 206.434C97.2334 205.803 99.7193 206.007 102 206C93.3551 194.695 75.4982 220.355 94.0039 224.452C96.993 225.114 100.023 224.374 103 224z"/>
    <path style="fill:#abbdd6; stroke:none;"
          d="M99.6667 203.333L100.333 203.667L99.6667 203.333M107 203L107 204L118 206C119.7 201.491 109.789 203 107 203M122 203L122 225L123 225C123 219.181 120.636 207.477 126 204L122 203M136 203L135 216L136 216L136 204L138 204L138 224L139 224L138 203L136 203M143 203L143 204L154 206C155.7 201.491 145.789 203 143 203M159 203L158 225L159 225C159 218.763 157.122 209.119 161 204L159 203z"/>
    <path style="fill:#c8244b; stroke:none;"
          d="M159 224L161 224L162 215L172 224L168 215C171.986 209.453 168.127 198.532 160.603 204.194C156.845 207.022 159 219.688 159 224z"/>
    <path style="fill:#6e8bb3; stroke:none;" d="M165 203L166 204L165 203z"/>
    <path style="fill:#abbdd6; stroke:none;"
          d="M166 203L167 204L166 203M181 203L181 204L185 205L185 204L181 203M194 205L198 205L194 205M216 203L216 204L219 204L216 203M223 203L223 204L226 204L223 203M237 203L236 220L237 220L239 204L237 203M247 203L248 204L247 203z"/>
    <path style="fill:#6e8bb3; stroke:none;" d="M248 203L249 204L248 203z"/>
    <path style="fill:#c8244b; stroke:none;"
          d="M243 222C245.87 226.062 253.613 225.706 254.623 219.957C255.641 214.168 239.377 205.78 254 206C251.221 202.116 243.927 203.476 244.006 209.003C244.064 213.051 258.448 221.267 247.039 222.346C245.781 222.465 244.237 222.126 243 222z"/>
    <path style="fill:#abbdd6; stroke:none;"
          d="M252.667 203.333L253.333 203.667L252.667 203.333M259 203L259 204L262 204L259 203M272 203L272 204L275 204L272 203M280 203L279 225L280 225C280 218.763 278.122 209.119 282 204L280 203z"/>
    <path style="fill:#6e8bb3; stroke:none;" d="M282 203L283 204L282 203z"/>
    <path style="fill:#c8244b; stroke:none;"
          d="M280 204L281 225L282 225L283 215L293 224L289 215C294.998 206.653 288.391 202.616 280 204z"/>
    <path style="fill:#6e8bb3; stroke:none;" d="M286 203L287 204L286 203z"/>
    <path style="fill:#abbdd6; stroke:none;"
          d="M287.667 203.333L288.333 203.667L287.667 203.333M301 204L301 205L306 205L301 204M315 203L315 225L316 225C316 219.181 313.636 207.477 319 204L315 203M329 203L328 220L329 220L329 204L331 204L331 225L332 225L331 203L329 203M342.667 203.333L343.333 203.667L342.667 203.333z"/>
    <path style="fill:#c8244b; stroke:none;"
          d="M351 223C344.515 221.764 330.815 215.838 341.228 207.718C343.943 205.601 347.81 205.837 351 205C330.714 192.927 331.749 236.149 351 223z"/>
    <path style="fill:#abbdd6; stroke:none;"
          d="M348.667 203.333L349.333 203.667L348.667 203.333M354 203L354 204L366 204L354 203M91 204L92 205L91 204M102 204L103 205L102 204z"/>
    <path style="fill:#c8244b; stroke:none;"
          d="M107 204C107 214.299 104.056 228.416 119 224L119 223L110 222L110 215L118 215L118 213L110 213L110 206L118 206L118 204L107 204M123 204L123 224L125 224L125 208L126 208C128.113 213.77 131.805 222.094 138 224L138 204L136 204L136 220C132.702 214.631 129.309 205.968 123 204M143 204C143 211.781 141.028 232.545 155 223L146 222L146 215L154 215L154 213L146 213L146 206L154 206L154 204L143 204z"/>
    <path style="fill:#abbdd6; stroke:none;" d="M169 204L170 205L169 204z"/>
    <path style="fill:#6e8bb3; stroke:none;" d="M180 204L181 205L180 204z"/>
    <path style="fill:#c8244b; stroke:none;"
          d="M175 225L176 225L178 218L191 224C189.585 219.651 187.744 207.441 183.545 205.176C178.563 202.488 174.604 221.847 175 225M195 204L195 225L206 224L206 223L197 222L197 204L195 204M216 204L217 225L218 225L218 204L216 204z"/>
    <path style="fill:#6e8bb3; stroke:none;" d="M218.333 204.667L218.667 205.333L218.333 204.667z"/>
    <path style="fill:#c8244b; stroke:none;"
          d="M223 204L224 224L226 224L226 208L227 208C228.884 213.953 232.693 222.134 239 224L239 204L237 204L237 220C233.328 214.552 230.018 205.187 223 204z"/>
    <path style="fill:#abbdd6; stroke:none;" d="M245 204L246 205L245 204z"/>
    <path style="fill:#6e8bb3; stroke:none;" d="M254 204L255 205L254 204z"/>
    <path style="fill:#c8244b; stroke:none;"
          d="M259 204C259.384 209.661 257.789 216.735 261.14 221.772C264.102 226.224 270.974 225.335 273.427 220.867C276.061 216.07 275 209.269 275 204L272 204C272 208.264 273.993 221.793 267 221.793C260.006 221.793 262 208.264 262 204L259 204z"/>
    <path style="fill:#abbdd6; stroke:none;" d="M290 204L291 205L290 204z"/>
    <path style="fill:#c8244b; stroke:none;"
          d="M295 224L299 218L312 224C311.118 220.77 307.383 204.173 303.144 204.921C298.839 205.681 296.205 220.296 295 224M316 204L316 224L318 224L318 208L319 208C320.814 213.694 325.033 222.138 331 224L331 204L329 204L329 220C325.429 214.604 322.531 206.01 316 204z"/>
    <path style="fill:#6e8bb3; stroke:none;" d="M340 204L341 205L340 204z"/>
    <path style="fill:#c8244b; stroke:none;"
          d="M354 204C354 214.42 351.007 228.432 366 224L366 223L357 222L357 215L365 215L365 213L357 213L357 206L366 205L354 204z"/>
    <path style="fill:#abbdd6; stroke:none;"
          d="M89 205L90 206L89 205M162 205L162 206L165 206L162 205M170 205L171 206L170 205z"/>
    <path style="fill:#6e8bb3; stroke:none;"
          d="M194 205L195 206L194 205M223.333 205.667L223.667 206.333L223.333 205.667z"/>
    <path style="fill:#abbdd6; stroke:none;"
          d="M227 205L228 206L227 205M244 205L245 206L244 205M249.667 205.333L250.333 205.667L249.667 205.333M254 205L255 206L254 205M286 214L286 213L283 213L286 206C280.556 204.777 281.661 212.56 286 214M291 205L292 206L291 205M338 205L339 206L338 205M345 205L346 206L345 205z"/>
    <path style="fill:#6e8bb3; stroke:none;" d="M346 205L347 206L346 205z"/>
    <path style="fill:#abbdd6; stroke:none;"
          d="M350 205L351 206L350 205M365 205L366 206L365 205M88 206L89 207L88 206M93 206L94 207L93 206M101 206L102 207L101 206M127 206L128 207L127 206z"/>
    <path style="fill:#fffefe; stroke:none;" d="M161 206L161 213C169.041 212.736 169.041 206.264 161 206z"/>
    <path style="fill:#abbdd6; stroke:none;"
          d="M167 206L168 207L167 206M179 206L180 207L179 206M194 206L195 207L194 206M218 206L218 225L219 225L218 206M253 206L254 207L253 206z"/>
    <path style="fill:#6e8bb3; stroke:none;" d="M259 206L260 207L259 206z"/>
    <path style="fill:#fffefe; stroke:none;" d="M283 206L283 213C289.889 212.463 289.889 206.537 283 206z"/>
    <path style="fill:#abbdd6; stroke:none;"
          d="M288 206L289 207L288 206M300.333 206.667L300.667 207.333L300.333 206.667M320 206L321 207L320 206M337 206L338 207L337 206M87 207L88 208L87 207M91 207L92 208L91 207M161 207L161 212L162 212L161 207M171 207L171 211L172 211L171 207z"/>
    <path style="fill:#6e8bb3; stroke:none;" d="M179 207L180 208L179 207z"/>
    <path style="fill:#abbdd6; stroke:none;" d="M182 207L183 208L182 207M185 207L186 208L185 207z"/>
    <path style="fill:#6e8bb3; stroke:none;" d="M194 207L195 208L194 207z"/>
    <path style="fill:#abbdd6; stroke:none;" d="M243 207L244 208L243 207M246 207L247 208L246 207z"/>
    <path style="fill:#6e8bb3; stroke:none;" d="M289 207L290 208L289 207z"/>
    <path style="fill:#abbdd6; stroke:none;"
          d="M292 207L292 211L293 211L292 207M303 207L304 208L303 207M306 207L307 208L306 207M336 207L337 208L336 207M340 207L341 208L340 207M90 208L91 209L90 208M125 208L126 209L125 208z"/>
    <path style="fill:#6e8bb3; stroke:none;" d="M128 208L129 209L128 208z"/>
    <path style="fill:#abbdd6; stroke:none;" d="M168 208L168 211L169 211L168 208z"/>
    <path style="fill:#fffefe; stroke:none;" d="M182 208L180 216L185 216L182 208z"/>
    <path style="fill:#abbdd6; stroke:none;" d="M194 208L194 216L195 216L194 208z"/>
    <path style="fill:#6e8bb3; stroke:none;" d="M223 208L223 214L224 214L223 208z"/>
    <path style="fill:#abbdd6; stroke:none;"
          d="M226 208L227 209L226 208M229 208L230 209L229 208M289 208L289 211L290 211L289 208z"/>
    <path style="fill:#fffefe; stroke:none;" d="M303 208L301 216L306 216L303 208z"/>
    <path style="fill:#abbdd6; stroke:none;"
          d="M318 208L319 209L318 208M339 208L340 209L339 208M86 209L87 210L86 209M129 209L130 210L129 209M178 209L179 210L178 209M181 209L182 210L181 209z"/>
    <path style="fill:#6e8bb3; stroke:none;" d="M183 209L184 210L183 209M243 209L244 210L243 209z"/>
    <path style="fill:#abbdd6; stroke:none;" d="M302 209L303 210L302 209z"/>
    <path style="fill:#6e8bb3; stroke:none;" d="M304 209L305 210L304 209z"/>
    <path style="fill:#abbdd6; stroke:none;"
          d="M322 209L323 210L322 209M335 209L336 210L335 209M89 210L90 211L89 210M126 210L127 211L126 210M183 210L184 211L183 210M186 210L187 211L186 210M227 210L228 211L227 210M243 210L244 211L243 210z"/>
    <path style="fill:#6e8bb3; stroke:none;" d="M246 210L247 211L246 210z"/>
    <path style="fill:#abbdd6; stroke:none;"
          d="M299 210L300 211L299 210M304 210L305 211L304 210M307 210L308 211L307 210M319 210L320 211L319 210z"/>
    <path style="fill:#6e8bb3; stroke:none;" d="M335 210L336 211L335 210z"/>
    <path style="fill:#abbdd6; stroke:none;" d="M338 210L339 211L338 210z"/>
    <path style="fill:#6e8bb3; stroke:none;" d="M127 211L128 212L127 211z"/>
    <path style="fill:#abbdd6; stroke:none;" d="M130 211L131 212L130 211z"/>
    <path style="fill:#6e8bb3; stroke:none;" d="M180 211L181 212L180 211z"/>
    <path style="fill:#abbdd6; stroke:none;"
          d="M231 211L232 212L231 211M323 211L324 212L323 211M110 212L110 213L118 213L110 212M131 212L132 213L131 212M146 212L146 213L154 213L146 212M170 212L171 213L170 212M177 212L178 213L177 212M180 212L181 213L180 212M228 212L229 213L228 212M244 212L245 213L244 212z"/>
    <path style="fill:#6e8bb3; stroke:none;" d="M249 212L250 213L249 212z"/>
    <path style="fill:#abbdd6; stroke:none;"
          d="M291 212L292 213L291 212M298.333 212.667L298.667 213.333L298.333 212.667M301 212L302 213L301 212z"/>
    <path style="fill:#6e8bb3; stroke:none;" d="M305 212L306 213L305 212z"/>
    <path style="fill:#abbdd6; stroke:none;"
          d="M308.333 212.667L308.667 213.333L308.333 212.667M357 212L357 213L365 213L357 212M85 213L85 216L86 216L85 213z"/>
    <path style="fill:#6e8bb3; stroke:none;" d="M88 213L89 214L88 213z"/>
    <path style="fill:#abbdd6; stroke:none;"
          d="M96 213L96 214L103 214L96 213M128 213L129 214L128 213M162 213L162 214L165 214L162 213M169 213L170 214L169 213z"/>
    <path style="fill:#6e8bb3; stroke:none;" d="M177 213L178 214L177 213z"/>
    <path style="fill:#abbdd6; stroke:none;" d="M184 213L185 214L184 213M187 213L188 214L187 213z"/>
    <path style="fill:#6e8bb3; stroke:none;" d="M229 213L230 214L229 213M232 213L233 214L232 213z"/>
    <path style="fill:#abbdd6; stroke:none;"
          d="M245 213L246 214L245 213M252 213L253 214L252 213M290 213L291 214L290 213M305 213L306 214L305 213M321 213L322 214L321 213M88 214L89 215L88 214M132 214L133 215L132 214M233 214L234 215L233 214M247 214L248 215L247 214M253 214L254 215L253 214M289 214L290 215L289 214M325 214L326 215L325 214z"/>
    <path style="fill:#6e8bb3; stroke:none;" d="M88 215L89 216L88 215z"/>
    <path style="fill:#abbdd6; stroke:none;"
          d="M162.667 215.333L163.333 215.667L162.667 215.333M176 215L177 216L176 215M179 215L180 216L179 215z"/>
    <path style="fill:#6e8bb3; stroke:none;" d="M185 215L186 216L185 215M223 215L224 216L223 215z"/>
    <path style="fill:#abbdd6; stroke:none;"
          d="M230 215L231 216L230 215M249 215L250 216L249 215M254 215L255 216L254 215M283 215L284 216L283 215z"/>
    <path style="fill:#6e8bb3; stroke:none;" d="M284 215L285 216L284 215z"/>
    <path style="fill:#abbdd6; stroke:none;"
          d="M297 215L298 216L297 215M300 215L301 216L300 215M309.333 215.667L309.667 216.333L309.333 215.667M322 215L323 216L322 215M130 216L131 217L130 216M161.333 216.667L161.667 217.333L161.333 216.667M166 216L167 217L166 216M188 216L189 217L188 216z"/>
    <path style="fill:#6e8bb3; stroke:none;" d="M194.333 216.667L194.667 217.333L194.333 216.667z"/>
    <path style="fill:#abbdd6; stroke:none;"
          d="M234 216L235 217L234 216M251 216L252 217L251 216M282 216L282 224L283 224L282 216M287 216L288 217L287 216z"/>
    <path style="fill:#6e8bb3; stroke:none;" d="M297 216L298 217L297 216z"/>
    <path style="fill:#abbdd6; stroke:none;" d="M323 216L324 217L323 216z"/>
    <path style="fill:#6e8bb3; stroke:none;" d="M326 216L327 217L326 216z"/>
    <path style="fill:#abbdd6; stroke:none;" d="M134 217L135 218L134 217M197 217L198 218L197 217z"/>
    <path style="fill:#6e8bb3; stroke:none;" d="M223 217L226 225L226 224L223 217z"/>
    <path style="fill:#abbdd6; stroke:none;" d="M255 217L255 221L256 221L255 217z"/>
    <path style="fill:#6e8bb3; stroke:none;" d="M259 217L260 218L259 217z"/>
    <path style="fill:#abbdd6; stroke:none;"
          d="M291.333 217.667L291.667 218.333L291.333 217.667M338 217L339 218L338 217M89 218L90 219L89 218M131 218L132 219L131 218M135.333 218.667L135.667 219.333L135.333 218.667M167 218L168 219L167 218M170 218L171 219L170 218M175 218L176 219L175 218M178 218L179 219L178 218M194 218L195 219L194 218M232 218L233 219L232 218M252.333 218.667L252.667 219.333L252.333 218.667M259.333 218.667L259.667 219.333L259.333 218.667M262 218L263 219L262 218M271.333 218.667L271.667 219.333L271.333 218.667z"/>
    <path style="fill:#6e8bb3; stroke:none;" d="M274 218L275 219L274 218z"/>
    <path style="fill:#abbdd6; stroke:none;"
          d="M288 218L289 219L288 218M296 218L297 219L296 218M299.333 218.667L299.667 219.333L299.333 218.667M310 218L311 219L310 218M324 218L325 219L324 218M335 218L336 219L335 218z"/>
    <path style="fill:#6e8bb3; stroke:none;" d="M338 218L339 219L338 218z"/>
    <path style="fill:#abbdd6; stroke:none;" d="M86 219L87 220L86 219M161 219L161 224L162 224L161 219z"/>
    <path style="fill:#6e8bb3; stroke:none;" d="M175 219L176 220L175 219z"/>
    <path style="fill:#abbdd6; stroke:none;" d="M186 219L187 220L186 219M189 219L190 220L189 219z"/>
    <path style="fill:#6e8bb3; stroke:none;" d="M194.333 219.667L194.667 220.333L194.333 219.667z"/>
    <path style="fill:#abbdd6; stroke:none;" d="M197 219L198 220L197 219z"/>
    <path style="fill:#6e8bb3; stroke:none;" d="M262 219L263 220L262 219z"/>
    <path style="fill:#abbdd6; stroke:none;" d="M274 219L275 220L274 219z"/>
    <path style="fill:#6e8bb3; stroke:none;" d="M296 219L297 220L296 219z"/>
    <path style="fill:#abbdd6; stroke:none;" d="M307 219L308 220L307 219z"/>
    <path style="fill:#6e8bb3; stroke:none;" d="M310 219L311 220L310 219M325 219L326 220L325 219z"/>
    <path style="fill:#abbdd6; stroke:none;" d="M339 219L340 220L339 219z"/>
    <path style="fill:#6e8bb3; stroke:none;" d="M87 220L88 221L87 220z"/>
    <path style="fill:#abbdd6; stroke:none;" d="M233 220L234 221L233 220z"/>
    <path style="fill:#6e8bb3; stroke:none;" d="M252 220L253 221L252 220M336 220L337 221L336 220z"/>
    <path style="fill:#abbdd6; stroke:none;"
          d="M92 221L93 222L92 221M133 221L134 222L133 221M171.333 221.667L171.667 222.333L171.333 221.667M174 221L175 222L174 221M177 221L178 222L177 221M194 221L195 222L194 221M197 221L198 222L197 221M243 221L244 222L243 221M251 221L252 222L251 221z"/>
    <path style="fill:#6e8bb3; stroke:none;" d="M260 221L261 222L260 221z"/>
    <path style="fill:#abbdd6; stroke:none;"
          d="M273 221L274 222L273 221M289.333 221.667L289.667 222.333L289.333 221.667M292.333 221.667L292.667 222.333L292.333 221.667M295 221L296 222L295 221z"/>
    <path style="fill:#6e8bb3; stroke:none;" d="M298 221L299 222L298 221z"/>
    <path style="fill:#abbdd6; stroke:none;"
          d="M311 221L312 222L311 221M326 221L327 222L326 221M341 221L342 222L341 221M95 222L95 223L99 223L95 222z"/>
    <path style="fill:#6e8bb3; stroke:none;" d="M118 222L119 223L118 222M154 222L155 223L154 222z"/>
    <path style="fill:#abbdd6; stroke:none;"
          d="M168 222L169 223L168 222M187 222L188 223L187 222M190 222L191 223L190 222z"/>
    <path style="fill:#6e8bb3; stroke:none;"
          d="M194.333 222.667L194.667 223.333L194.333 222.667M205 222L206 223L205 222z"/>
    <path style="fill:#abbdd6; stroke:none;"
          d="M246 222L246 223L250 223L246 222M254 222L255 223L254 222M265 222L265 223L269 223L265 222z"/>
    <path style="fill:#6e8bb3; stroke:none;" d="M295 222L296 223L295 222z"/>
    <path style="fill:#abbdd6; stroke:none;"
          d="M308 222L309 223L308 222M344 222L344 223L348 223L344 222M350 222L351 223L350 222z"/>
    <path style="fill:#6e8bb3; stroke:none;" d="M365 222L366 223L365 222z"/>
    <path style="fill:#abbdd6; stroke:none;"
          d="M90 223L91 224L90 223M134 223L135 224L134 223M235 223L236 224L235 223M253 223L254 224L253 223M339 223L340 224L339 223M92.6667 224.333L93.3333 224.667L92.6667 224.333z"/>
    <path style="fill:#6e8bb3; stroke:none;" d="M99 224L100 225L99 224z"/>
    <path style="fill:#abbdd6; stroke:none;" d="M100 224L101 225L100 224z"/>
    <path style="fill:#6e8bb3; stroke:none;"
          d="M107.667 224.333L108.333 224.667L107.667 224.333M118 224L119 225L118 224M123.667 224.333L124.333 224.667L123.667 224.333z"/>
    <path style="fill:#abbdd6; stroke:none;" d="M135 224L136 225L135 224z"/>
    <path style="fill:#6e8bb3; stroke:none;"
          d="M136.667 224.333L137.333 224.667L136.667 224.333M143.667 224.333L144.333 224.667L143.667 224.333M153.667 224.333L154.333 224.667L153.667 224.333M159.667 224.333L160.333 224.667L159.667 224.333z"/>
    <path style="fill:#abbdd6; stroke:none;" d="M169 224L170 225L169 224z"/>
    <path style="fill:#6e8bb3; stroke:none;"
          d="M170.667 224.333L171.333 224.667L170.667 224.333M174 224L175 225L174 224z"/>
    <path style="fill:#abbdd6; stroke:none;" d="M176 224L177 225L176 224M188 224L189 225L188 224z"/>
    <path style="fill:#6e8bb3; stroke:none;" d="M189.667 224.333L190.333 224.667L189.667 224.333z"/>
    <path style="fill:#abbdd6; stroke:none;" d="M194 224L195 225L194 224z"/>
    <path style="fill:#6e8bb3; stroke:none;" d="M205 224L206 225L205 224M216 224L217 225L216 224z"/>
    <path style="fill:#abbdd6; stroke:none;" d="M223 224L224 225L223 224M236 224L237 225L236 224z"/>
    <path style="fill:#6e8bb3; stroke:none;" d="M237.667 224.333L238.333 224.667L237.667 224.333z"/>
    <path style="fill:#abbdd6; stroke:none;"
          d="M244 224L245 225L244 224M251 224L252 225L251 224M263 224L264 225L263 224z"/>
    <path style="fill:#6e8bb3; stroke:none;" d="M269 224L270 225L269 224z"/>
    <path style="fill:#abbdd6; stroke:none;" d="M270 224L271 225L270 224z"/>
    <path style="fill:#6e8bb3; stroke:none;" d="M280 224L281 225L280 224z"/>
    <path style="fill:#abbdd6; stroke:none;" d="M290 224L291 225L290 224z"/>
    <path style="fill:#6e8bb3; stroke:none;"
          d="M291.667 224.333L292.333 224.667L291.667 224.333M295.667 224.333L296.333 224.667L295.667 224.333z"/>
    <path style="fill:#abbdd6; stroke:none;" d="M297 224L298 225L297 224M309 224L310 225L309 224z"/>
    <path style="fill:#6e8bb3; stroke:none;"
          d="M310.667 224.333L311.333 224.667L310.667 224.333M316.667 224.333L317.333 224.667L316.667 224.333z"/>
    <path style="fill:#abbdd6; stroke:none;" d="M328 224L329 225L328 224z"/>
    <path style="fill:#6e8bb3; stroke:none;" d="M329.667 224.333L330.333 224.667L329.667 224.333z"/>
    <path style="fill:#abbdd6; stroke:none;"
          d="M341 224L342 225L341 224M349 224L350 225L349 224M354 224L355 225L354 224z"/>
    <path style="fill:#6e8bb3; stroke:none;" d="M365 224L366 225L365 224z"/>
    <path style="fill:#abbdd6; stroke:none;" d="M470 234L471 235L470 234M472 234L473 235L472 234z"/>
</svg>
